<?xml version="1.0" encoding="UTF-8" standalone="no"?>
<!-- Created with Inkscape (http://www.inkscape.org/) -->

<svg
   xmlns:dc="http://purl.org/dc/elements/1.1/"
   xmlns:cc="http://creativecommons.org/ns#"
   xmlns:rdf="http://www.w3.org/1999/02/22-rdf-syntax-ns#"
   xmlns:svg="http://www.w3.org/2000/svg"
   xmlns="http://www.w3.org/2000/svg"
   xmlns:xlink="http://www.w3.org/1999/xlink"
   xmlns:sodipodi="http://sodipodi.sourceforge.net/DTD/sodipodi-0.dtd"
   xmlns:inkscape="http://www.inkscape.org/namespaces/inkscape"
   width="30.223339"
   height="30.223339"
   id="svg2"
   version="1.1"
   inkscape:version="0.48.5 r10040"
   sodipodi:docname="astonished.svg">
  <defs
     id="defs4">
    <linearGradient
       id="linearGradient3181">
      <stop
         style="stop-color:#ff2000;stop-opacity:1;"
         offset="0"
         id="stop3183" />
      <stop
         style="stop-color:#ffcc00;stop-opacity:1;"
         offset="1"
         id="stop3185" />
    </linearGradient>
    <linearGradient
       inkscape:collect="always"
       xlink:href="#linearGradient3131"
       id="linearGradient3137"
       x1="18.417803"
       y1="245.66988"
       x2="18.417803"
       y2="219.33583"
       gradientUnits="userSpaceOnUse" />
    <linearGradient
       id="linearGradient3131">
      <stop
         style="stop-color:#ffcc00;stop-opacity:1;"
         offset="0"
         id="stop3133" />
      <stop
         style="stop-color:#0063f6;stop-opacity:1;"
         offset="1"
         id="stop3135" />
    </linearGradient>
  </defs>
  <sodipodi:namedview
     id="base"
     pagecolor="#ffffff"
     bordercolor="#666666"
     borderopacity="1.0"
     inkscape:pageopacity="0.0"
     inkscape:pageshadow="2"
     inkscape:zoom="4.0000002"
     inkscape:cx="-72.330053"
     inkscape:cy="-2.190382"
     inkscape:document-units="px"
     inkscape:current-layer="g4927"
     showgrid="false"
     fit-margin-top="0"
     fit-margin-left="0"
     fit-margin-right="0"
     fit-margin-bottom="0"
     inkscape:window-width="1680"
     inkscape:window-height="1011"
     inkscape:window-x="0"
     inkscape:window-y="20"
     inkscape:window-maximized="1" />
  <metadata
     id="metadata7">
    <rdf:RDF>
      <cc:Work
         rdf:about="">
        <dc:format>image/svg+xml</dc:format>
        <dc:type
           rdf:resource="http://purl.org/dc/dcmitype/StillImage" />
        <dc:title />
      </cc:Work>
    </rdf:RDF>
  </metadata>
  <g
     inkscape:label="stunned"
     inkscape:groupmode="layer"
     id="g4927"
     transform="translate(-5.2176508,-1016.9212)"
     style="display:inline">
    <path
       sodipodi:type="arc"
       style="fill:#ffcc00;fill-opacity:1;stroke:#000000;stroke-width:1.12830925;stroke-linecap:butt;stroke-linejoin:bevel;stroke-miterlimit:4;stroke-opacity:1;stroke-dasharray:none;stroke-dashoffset:0"
       id="path4929"
       sodipodi:cx="16"
       sodipodi:cy="240"
       sodipodi:rx="16"
       sodipodi:ry="16"
       d="m 32,240 c 0,8.83656 -7.163444,16 -16,16 -8.836556,0 -16,-7.16344 -16,-16 0,-8.83656 7.163444,-16 16,-16 8.836556,0 16,7.16344 16,16 z"
       transform="matrix(0.88628187,0,0,0.88628187,6.1488101,819.32523)" />
    <path
       sodipodi:type="arc"
       style="fill:#000000;fill-opacity:1;stroke:none"
       id="path4937"
       sodipodi:cx="16.042484"
       sodipodi:cy="21.340311"
       sodipodi:rx="4.3752232"
       sodipodi:ry="5.1707187"
       d="m 20.417707,21.340311 c 0,2.855709 -1.958854,5.170719 -4.375223,5.170719 -2.416369,0 -4.375223,-2.31501 -4.375223,-5.170719 0,-2.855709 1.958854,-5.170719 4.375223,-5.170719 2.416369,0 4.375223,2.31501 4.375223,5.170719 z"
       transform="matrix(0.9154008,0,0,0.79583505,5.6440171,1019.7995)" />
    <path
       sodipodi:type="arc"
       style="fill:#ffffff;fill-opacity:1;stroke:#000000;stroke-width:0.46134232;stroke-miterlimit:4;stroke-opacity:1;stroke-dasharray:none;display:inline"
       id="path3781-26-2"
       sodipodi:cx="12.142858"
       sodipodi:cy="238.5"
       sodipodi:rx="1.9642857"
       sodipodi:ry="3.9285715"
       d="m 14.107143,238.5 c 0,2.16969 -0.87944,3.92857 -1.964285,3.92857 -1.084846,0 -1.964286,-1.75888 -1.964286,-3.92857 0,-2.16969 0.87944,-3.92857 1.964286,-3.92857 1.084845,0 1.964285,1.75888 1.964285,3.92857 z"
       transform="matrix(1.4939068,0,0,0.78626675,-2.9773773,839.99771)" />
    <path
       sodipodi:type="arc"
       style="fill:#ffffff;fill-opacity:1;stroke:#000000;stroke-width:0.46134232;stroke-miterlimit:4;stroke-opacity:1;stroke-dasharray:none;display:inline"
       id="path3781-5-29-6"
       sodipodi:cx="12.142858"
       sodipodi:cy="238.5"
       sodipodi:rx="1.9642857"
       sodipodi:ry="3.9285715"
       d="m 14.107143,238.5 c 0,2.16969 -0.87944,3.92857 -1.964285,3.92857 -1.084846,0 -1.964286,-1.75888 -1.964286,-3.92857 0,-2.16969 0.87944,-3.92857 1.964286,-3.92857 1.084845,0 1.964285,1.75888 1.964285,3.92857 z"
       transform="matrix(1.4939068,0,0,0.78626675,8.0680042,839.99771)" />
  </g>
</svg>
