<?xml version="1.0" encoding="UTF-8" standalone="no"?>
<!-- Generator: Adobe Illustrator 16.0.0, SVG Export Plug-In . SVG Version: 6.00 Build 0)  -->

<svg
   xmlns:dc="http://purl.org/dc/elements/1.1/"
   xmlns:cc="http://creativecommons.org/ns#"
   xmlns:rdf="http://www.w3.org/1999/02/22-rdf-syntax-ns#"
   xmlns:svg="http://www.w3.org/2000/svg"
   xmlns="http://www.w3.org/2000/svg"
   xmlns:sodipodi="http://sodipodi.sourceforge.net/DTD/sodipodi-0.dtd"
   xmlns:inkscape="http://www.inkscape.org/namespaces/inkscape"
   version="1.1"
   id="レイヤー_1"
   x="0px"
   y="0px"
   width="128px"
   height="128px"
   viewBox="0 0 128 128"
   enable-background="new 0 0 128 128"
   xml:space="preserve"
   inkscape:version="0.48.5 r10040"
   sodipodi:docname="cat_hearts.svg"><metadata
     id="metadata15"><rdf:RDF><cc:Work
         rdf:about=""><dc:format>image/svg+xml</dc:format><dc:type
           rdf:resource="http://purl.org/dc/dcmitype/StillImage" /></cc:Work></rdf:RDF></metadata><defs
     id="defs13" /><sodipodi:namedview
     pagecolor="#ffffff"
     bordercolor="#666666"
     borderopacity="1"
     objecttolerance="10"
     gridtolerance="10"
     guidetolerance="10"
     inkscape:pageopacity="0"
     inkscape:pageshadow="2"
     inkscape:window-width="1680"
     inkscape:window-height="1011"
     id="namedview11"
     showgrid="false"
     inkscape:zoom="0.921875"
     inkscape:cx="-116.78526"
     inkscape:cy="-98.696805"
     inkscape:window-x="0"
     inkscape:window-y="20"
     inkscape:window-maximized="1"
     inkscape:current-layer="レイヤー_1" /><path
     style="fill:#d65a8c"
     inkscape:connector-curvature="0"
     id="path5"
     d="m 107.83,75.05 c 0,10.46 -19.58,18.93 -43.74,18.93 -24.15,0 -43.74,-8.47 -43.74,-18.93 0,-10.46 19.58,-18.94 43.74,-18.94 24.16,0.01 43.74,8.49 43.74,18.94 z" /><rect
     style="fill:#000000;fill-opacity:1"
     id="rect7"
     height="19.200001"
     width="58.740002"
     y="92.370003"
     x="36.689999" /><path
     style="fill:#ffcc00;stroke:#000000;stroke-opacity:1;stroke-width:3;stroke-miterlimit:4;stroke-dasharray:none;fill-opacity:1"
     d="m 125.09,94.34 -9.95,-1.8 c 0.43,-1.68 0.74,-3.4 0.94,-5.14 l 9.15,-1.36 c 1.17,-0.17 1.97,-1.26 1.8,-2.43 -0.17,-1.16 -1.27,-1.96 -2.42,-1.79 l -8.23,1.22 c 0.03,-1.71 0,-3.41 -0.12,-5.13 -0.25,-3.72 -1.08,-7.47 -2.41,-11.11 2.94,-8.31 12.13,-36.37 5.13,-43.87 C 113.64,17.21 94.92,29.46 88.74,33.99 86.52,35.62 84.6,37 82.95,38.18 76.79,36.32 70.11,35.35 63.49,35.36 56.76,35.35 49.97,36.36 43.72,38.28 41.8,37.16 39.5,35.79 36.78,34.13 30.24,30.16 10.53,19.56 5.71,25.72 c -5.72,7.31 3.2,30.22 7.65,40.47 -1.46,3.83 -2.37,7.79 -2.63,11.71 -0.11,1.66 -0.15,3.32 -0.12,4.97 L 3.41,81.8 c -1.15,-0.17 -2.25,0.63 -2.43,1.79 -0.17,1.17 0.63,2.25 1.8,2.43 l 8.1,1.21 c 0.21,1.85 0.53,3.68 1,5.47 L 2.9,94.32 c -1.16,0.21 -1.93,1.32 -1.72,2.48 0.19,1.03 1.08,1.75 2.1,1.75 0.12,0 0.25,-0.01 0.38,-0.03 l 9.58,-1.72 c 0.78,1.9 1.76,3.73 2.96,5.48 l -9.57,3.04 c -1.12,0.36 -1.75,1.56 -1.39,2.68 0.29,0.91 1.13,1.49 2.03,1.49 0.21,0 0.43,-0.03 0.65,-0.1 l 11.15,-3.54 c 1.23,1.3 2.6,2.55 4.16,3.72 6.05,4.51 13.57,7.57 21.33,9.23 2.95,0.63 10.56,2.1 18.55,2.1 7.99,0 16.35,-1.47 19.3,-2.1 7.75,-1.66 15.28,-4.71 21.33,-9.23 1.67,-1.24 3.11,-2.58 4.4,-3.98 0.02,0.01 0.04,0.03 0.06,0.03 l 11.87,3.77 c 0.21,0.07 0.43,0.1 0.65,0.1 0.9,0 1.75,-0.58 2.03,-1.49 0.35,-1.12 -0.27,-2.32 -1.39,-2.68 l -10.41,-3.31 c 1.15,-1.72 2.09,-3.53 2.84,-5.39 l 10.53,1.9 c 0.13,0.03 0.25,0.03 0.38,0.03 1.01,0 1.91,-0.72 2.1,-1.75 0.22,-1.14 -0.55,-2.25 -1.71,-2.46 z"
     id="path3001" /><path
     style="fill:#ff0000;fill-opacity:1;stroke-width:1.5;stroke-miterlimit:4;stroke-dasharray:none;stroke:#000000;stroke-opacity:1;stroke-linecap:round;stroke-linejoin:round"
     d="m 27.39,75.17 c -0.75,-3.78 1.71,-7.45 5.5,-8.2 3.73,-0.74 7.34,1.65 8.17,5.34 -0.64,-3.73 1.79,-7.3 5.52,-8.05 3.78,-0.75 7.47,1.72 8.21,5.5 1.8,9.06 -10.38,19.48 -10.38,19.48 0,0 -15.23,-5 -17.02,-14.07 z"
     id="path2999" /><path
     style="fill:#000000;fill-opacity:1"
     d="m 86.25,98.81 c -0.72,3.06 -4.09,9.02 -11.75,9.69 -0.63,0.05 -1.23,0.08 -1.81,0.08 -4.44,0 -7.39,-1.51 -9.2,-2.88 -1.81,1.37 -4.77,2.88 -9.2,2.88 -0.58,0 -1.18,-0.03 -1.81,-0.08 -7.65,-0.67 -11.03,-6.63 -11.75,-9.69 -0.34,-1.43 0.55,-2.87 1.99,-3.21 1.43,-0.34 2.85,0.55 3.2,1.97 0.14,0.54 1.47,5.12 7.03,5.61 5.95,0.53 8.26,-2.54 8.36,-2.67 0.06,-0.09 0.16,-0.13 0.23,-0.21 0.15,-0.16 0.27,-0.34 0.46,-0.47 1.22,-0.82 2.88,-0.5 3.7,0.72 0.07,0.09 2.38,3.16 8.33,2.63 5.57,-0.49 6.89,-5.09 7.03,-5.62 0.36,-1.42 1.8,-2.29 3.22,-1.94 1.42,0.35 2.3,1.77 1.97,3.19 z"
     id="path2997" /><path
     style="fill:#ff0000;fill-opacity:1;stroke-width:1.5;stroke-miterlimit:4;stroke-dasharray:none;stroke:#000000;stroke-opacity:1;stroke-linecap:round;stroke-linejoin:round"
     d="m 99.61,75.17 c -1.79,9.06 -17.02,14.07 -17.02,14.07 0,0 -12.18,-10.42 -10.38,-19.48 0.75,-3.78 4.43,-6.25 8.21,-5.5 3.73,0.75 6.16,4.32 5.52,8.05 0.83,-3.69 4.44,-6.08 8.17,-5.34 3.79,0.76 6.24,4.43 5.5,8.2 z"
     id="path9" /></svg>