<?xml version="1.0" encoding="UTF-8" standalone="no"?>
<!-- Generator: Adobe Illustrator 16.0.0, SVG Export Plug-In . SVG Version: 6.00 Build 0)  -->

<svg
   xmlns:dc="http://purl.org/dc/elements/1.1/"
   xmlns:cc="http://creativecommons.org/ns#"
   xmlns:rdf="http://www.w3.org/1999/02/22-rdf-syntax-ns#"
   xmlns:svg="http://www.w3.org/2000/svg"
   xmlns="http://www.w3.org/2000/svg"
   xmlns:sodipodi="http://sodipodi.sourceforge.net/DTD/sodipodi-0.dtd"
   xmlns:inkscape="http://www.inkscape.org/namespaces/inkscape"
   version="1.1"
   id="レイヤー_1"
   x="0px"
   y="0px"
   width="128px"
   height="128px"
   viewBox="0 0 128 128"
   enable-background="new 0 0 128 128"
   xml:space="preserve"
   inkscape:version="0.48.5 r10040"
   sodipodi:docname="cat_smile.svg"><metadata
     id="metadata15"><rdf:RDF><cc:Work
         rdf:about=""><dc:format>image/svg+xml</dc:format><dc:type
           rdf:resource="http://purl.org/dc/dcmitype/StillImage" /></cc:Work></rdf:RDF></metadata><defs
     id="defs13"><inkscape:perspective
       sodipodi:type="inkscape:persp3d"
       inkscape:vp_x="0 : 64 : 1"
       inkscape:vp_y="0 : 1000 : 0"
       inkscape:vp_z="128 : 64 : 1"
       inkscape:persp3d-origin="64 : 42.666667 : 1"
       id="perspective2992" /></defs><sodipodi:namedview
     pagecolor="#ffffff"
     bordercolor="#666666"
     borderopacity="1"
     objecttolerance="10"
     gridtolerance="10"
     guidetolerance="10"
     inkscape:pageopacity="0"
     inkscape:pageshadow="2"
     inkscape:window-width="1680"
     inkscape:window-height="1011"
     id="namedview11"
     showgrid="false"
     inkscape:zoom="1.84375"
     inkscape:cx="-23.864407"
     inkscape:cy="64"
     inkscape:window-x="0"
     inkscape:window-y="20"
     inkscape:window-maximized="1"
     inkscape:current-layer="レイヤー_1" /><rect
     style="fill:#000000;fill-opacity:1"
     id="rect5"
     height="19.200001"
     width="76.510002"
     y="64.900002"
     x="28.66" /><rect
     style="fill:#000000;fill-opacity:1"
     id="rect7"
     height="19.200001"
     width="45.560001"
     y="95.160004"
     x="41.43" /><path
     style="fill:#ffcc00;stroke:#000000;stroke-opacity:1;stroke-width:3;stroke-miterlimit:4;stroke-dasharray:none;fill-opacity:1"
     d="m 125.08,85.23 -7.85,-1.42 c 0.07,-1.88 0.04,-3.78 -0.08,-5.68 l 8.07,-1.2 c 1.16,-0.17 1.97,-1.26 1.8,-2.43 -0.17,-1.17 -1.27,-1.96 -2.42,-1.79 l -7.96,1.19 c -0.99,-5.66 -3.23,-11.27 -6.52,-16.35 1.05,-10.02 3.05,-37.17 -5.09,-42.64 -6.49,-4.36 -21.95,11.83 -26.94,17.63 -1.15,1.34 -2.2,2.55 -3.16,3.65 -3.48,-0.53 -7.02,-0.82 -10.55,-0.82 -3.52,0 -7.06,0.29 -10.54,0.82 -0.97,-1.1 -2.01,-2.31 -3.16,-3.65 C 45.7,26.73 30.24,10.55 23.74,14.9 15.59,20.37 17.61,47.54 18.65,57.55 15.34,62.66 13.1,68.31 12.12,74 L 3.41,72.7 c -1.17,-0.16 -2.25,0.63 -2.43,1.79 -0.17,1.17 0.63,2.26 1.8,2.43 l 8.83,1.32 c -0.11,1.81 -0.14,3.63 -0.08,5.43 l -8.61,1.55 c -1.16,0.21 -1.93,1.32 -1.72,2.48 0.19,1.03 1.09,1.75 2.1,1.75 0.12,0 0.25,-0.01 0.38,-0.03 l 8.2,-1.48 c 0.27,2.11 0.71,4.18 1.33,6.2 l -6.56,2.08 c -1.12,0.36 -1.75,1.56 -1.39,2.68 0.29,0.91 1.12,1.49 2.03,1.49 0.22,0 0.43,-0.03 0.65,-0.1 l 6.8,-2.16 c 1.97,4.25 4.98,8.15 9.4,11.45 6.05,4.51 13.58,7.57 21.33,9.23 2.95,0.63 10.56,2.1 18.55,2.1 7.99,0 16.35,-1.47 19.3,-2.1 7.75,-1.66 15.28,-4.72 21.33,-9.23 4.35,-3.24 7.33,-7.07 9.3,-11.24 l 6.13,1.95 c 0.21,0.07 0.43,0.1 0.65,0.1 0.9,0 1.74,-0.58 2.03,-1.49 0.35,-1.12 -0.27,-2.32 -1.39,-2.68 l -5.86,-1.86 c 0.65,-2.04 1.1,-4.14 1.38,-6.28 l 7.45,1.34 c 0.13,0.02 0.26,0.03 0.38,0.03 1.01,0 1.91,-0.72 2.1,-1.75 0.19,-1.15 -0.58,-2.26 -1.74,-2.47 z"
     id="path3771" /><path
     style="fill:#000000;fill-opacity:1"
     d="m 32.51,75.19 c 0,-4.58 3.3,-8.29 7.37,-8.29 4.06,0 7.36,3.71 7.36,8.29 0,4.58 -3.3,8.3 -7.36,8.3 -4.07,0 -7.37,-3.71 -7.37,-8.3 z"
     id="path3769" /><path
     style="fill:#000000;fill-opacity:1"
     d="m 83.83,98.74 c -0.27,1.67 -0.7,3.42 -1.46,4.96 -1.1,2.21 -2.83,4.18 -5.03,5.49 -4.26,2.53 -9.23,3.2 -14.18,3.21 -7.55,0.02 -15.09,-3.94 -17.54,-10.87 -0.17,-0.48 -0.61,-1.78 -0.72,-2.9 -0.09,-0.98 0.08,-1.84 0.93,-1.9 1.12,-0.07 1.93,0.81 2.73,1.41 0.74,0.55 1.66,0.85 2.53,1.15 1.07,0.36 2.13,0.74 3.24,0.96 1.19,0.24 2.53,0.09 3.7,-0.16 1.7,-0.36 2.93,-1.3 4.35,-2.16 0.88,-0.53 1.87,-0.88 2.97,-0.7 0.65,0.11 1.32,0.43 1.9,0.7 0.85,0.38 1.66,0.95 2.48,1.4 0.72,0.39 1.5,0.54 2.35,0.56 1.88,0.05 3.78,0.24 5.61,-0.34 0.87,-0.28 1.69,-0.56 2.48,-1 1.52,-0.84 4.15,-2.84 3.66,0.19 z"
     id="path3767" /><path
     style="fill:#000000;fill-opacity:1"
     d="m 88.9,83.49 c -4.07,0 -7.37,-3.71 -7.37,-8.3 0,-4.58 3.3,-8.29 7.37,-8.29 4.06,0 7.36,3.71 7.36,8.29 0,4.59 -3.3,8.3 -7.36,8.3 z"
     id="path9" /></svg>