<?xml version="1.0" encoding="UTF-8" standalone="no"?>
<!-- Generator: Adobe Illustrator 16.0.0, SVG Export Plug-In . SVG Version: 6.00 Build 0)  -->

<svg
   xmlns:dc="http://purl.org/dc/elements/1.1/"
   xmlns:cc="http://creativecommons.org/ns#"
   xmlns:rdf="http://www.w3.org/1999/02/22-rdf-syntax-ns#"
   xmlns:svg="http://www.w3.org/2000/svg"
   xmlns="http://www.w3.org/2000/svg"
   xmlns:sodipodi="http://sodipodi.sourceforge.net/DTD/sodipodi-0.dtd"
   xmlns:inkscape="http://www.inkscape.org/namespaces/inkscape"
   version="1.1"
   id="レイヤー_1"
   x="0px"
   y="0px"
   width="128px"
   height="128px"
   viewBox="0 0 128 128"
   enable-background="new 0 0 128 128"
   xml:space="preserve"
   inkscape:version="0.48.5 r10040"
   sodipodi:docname="cat_pout.svg"><metadata
     id="metadata13"><rdf:RDF><cc:Work
         rdf:about=""><dc:format>image/svg+xml</dc:format><dc:type
           rdf:resource="http://purl.org/dc/dcmitype/StillImage" /></cc:Work></rdf:RDF></metadata><defs
     id="defs11" /><sodipodi:namedview
     pagecolor="#ffffff"
     bordercolor="#666666"
     borderopacity="1"
     objecttolerance="10"
     gridtolerance="10"
     guidetolerance="10"
     inkscape:pageopacity="0"
     inkscape:pageshadow="2"
     inkscape:window-width="1680"
     inkscape:window-height="1011"
     id="namedview9"
     showgrid="false"
     inkscape:zoom="1.84375"
     inkscape:cx="-23.864407"
     inkscape:cy="64"
     inkscape:window-x="0"
     inkscape:window-y="20"
     inkscape:window-maximized="1"
     inkscape:current-layer="レイヤー_1" /><path
     style="fill:#2f2f2f"
     inkscape:connector-curvature="0"
     id="path5"
     d="m 104.95,83.35 c 0,17.91 -19.34,32.42 -43.2,32.42 -23.86,0 -43.2,-14.51 -43.2,-32.42 0,-17.9 19.34,-32.41 43.2,-32.41 23.86,0 43.2,14.51 43.2,32.41 z" /><path
     style="fill:#ffcc00;stroke:#000000;stroke-opacity:1;stroke-width:3;stroke-miterlimit:4;stroke-dasharray:none;fill-opacity:1"
     d="m 125.08,92.17 -10.3,-1.86 c 0.31,-1.64 0.52,-3.3 0.63,-4.98 l 9.81,-1.46 c 1.16,-0.17 1.97,-1.26 1.8,-2.42 -0.18,-1.17 -1.25,-1.96 -2.43,-1.8 L 115.52,81 c -0.02,-1.02 -0.05,-2.05 -0.12,-3.08 -0.52,-7.71 -3.49,-15.55 -8.33,-22.28 -0.44,-8.56 -2.65,-38.39 -12.06,-42.68 -7.12,-3.24 -19.73,15.25 -23.7,21.79 -0.23,0.38 -0.45,0.73 -0.67,1.09 -2.65,-0.3 -5.33,-0.48 -8,-0.48 -2.53,0 -5.06,0.17 -7.58,0.44 -0.2,-0.34 -0.4,-0.67 -0.62,-1.02 C 50.5,28.22 37.95,9.69 30.82,12.9 21.57,17.08 19.17,45.94 18.64,55.08 13.56,61.93 10.42,69.99 9.88,77.91 9.82,78.81 9.78,79.7 9.76,80.59 L 3.4,79.64 c -1.16,-0.16 -2.25,0.63 -2.42,1.8 -0.18,1.17 0.63,2.25 1.8,2.42 l 7.06,1.05 c 0.12,1.98 0.35,3.94 0.75,5.86 l -7.68,1.38 c -1.16,0.21 -1.93,1.32 -1.72,2.48 0.19,1.03 1.09,1.75 2.1,1.75 0.12,0 0.25,-0.01 0.38,-0.03 L 11.7,94.9 c 0.67,2 1.55,3.94 2.65,5.8 l -7.7,2.45 c -1.12,0.35 -1.75,1.55 -1.39,2.68 0.29,0.91 1.13,1.49 2.03,1.49 0.21,0 0.43,-0.03 0.65,-0.1 l 8.98,-2.85 c 1.53,1.85 3.33,3.6 5.48,5.2 6.05,4.51 13.57,7.57 21.33,9.23 2.95,0.63 10.56,2.1 18.55,2.1 7.99,0 16.35,-1.47 19.3,-2.1 7.75,-1.66 15.28,-4.72 21.33,-9.23 2.41,-1.8 4.38,-3.78 6.01,-5.89 l 11.16,3.55 c 0.21,0.07 0.43,0.1 0.65,0.1 0.9,0 1.74,-0.58 2.03,-1.49 0.35,-1.12 -0.27,-2.33 -1.39,-2.68 l -10.01,-3.18 c 0.98,-1.78 1.78,-3.63 2.38,-5.53 l 10.59,1.91 c 0.13,0.02 0.26,0.03 0.38,0.03 1.01,0 1.91,-0.72 2.1,-1.75 0.2,-1.15 -0.57,-2.26 -1.73,-2.47 z"
     id="path3766" /><path
     style="fill:#000000;fill-opacity:1"
     d="m 36.94,82.77 c -5.48,0 -9.94,-4.21 -9.94,-9.41 0,-1.18 0.25,-2.3 0.67,-3.34 l 17.72,8.25 c -1.75,2.69 -4.87,4.5 -8.45,4.5 z"
     id="path3764" /><path
     style="fill:#000000;fill-opacity:1"
     d="m 84.8,102.73 c -0.76,1.27 -2.39,1.67 -3.65,0.92 -0.58,-0.34 -14.33,-8.25 -29.94,2.12 -0.45,0.3 -0.97,0.45 -1.48,0.45 -0.86,0 -1.71,-0.42 -2.22,-1.19 -0.82,-1.23 -0.48,-2.88 0.74,-3.7 18.49,-12.29 34.94,-2.67 35.64,-2.26 1.26,0.76 1.67,2.4 0.91,3.66 z"
     id="path3762" /><path
     style="fill:#000000;fill-opacity:1"
     d="m 88.34,82.77 c -4.02,0 -7.46,-2.27 -9.03,-5.52 l 17.78,-8.28 c 0.74,1.31 1.2,2.79 1.2,4.38 0,5.21 -4.46,9.42 -9.95,9.42 z"
     id="path7" /></svg>