<?xml version="1.0" encoding="UTF-8" standalone="no"?>
<!-- Generator: Adobe Illustrator 16.0.0, SVG Export Plug-In . SVG Version: 6.00 Build 0)  -->

<svg
   xmlns:dc="http://purl.org/dc/elements/1.1/"
   xmlns:cc="http://creativecommons.org/ns#"
   xmlns:rdf="http://www.w3.org/1999/02/22-rdf-syntax-ns#"
   xmlns:svg="http://www.w3.org/2000/svg"
   xmlns="http://www.w3.org/2000/svg"
   xmlns:sodipodi="http://sodipodi.sourceforge.net/DTD/sodipodi-0.dtd"
   xmlns:inkscape="http://www.inkscape.org/namespaces/inkscape"
   version="1.1"
   id="レイヤー_1"
   x="0px"
   y="0px"
   width="128px"
   height="128px"
   viewBox="0 0 128 128"
   enable-background="new 0 0 128 128"
   xml:space="preserve"
   inkscape:version="0.48.5 r10040"
   sodipodi:docname="cat_kiss.svg"><metadata
     id="metadata13"><rdf:RDF><cc:Work
         rdf:about=""><dc:format>image/svg+xml</dc:format><dc:type
           rdf:resource="http://purl.org/dc/dcmitype/StillImage" /></cc:Work></rdf:RDF></metadata><defs
     id="defs11" /><sodipodi:namedview
     pagecolor="#ffffff"
     bordercolor="#666666"
     borderopacity="1"
     objecttolerance="10"
     gridtolerance="10"
     guidetolerance="10"
     inkscape:pageopacity="0"
     inkscape:pageshadow="2"
     inkscape:window-width="1680"
     inkscape:window-height="1011"
     id="namedview9"
     showgrid="false"
     inkscape:zoom="3.6875"
     inkscape:cx="33.473676"
     inkscape:cy="70.22982"
     inkscape:window-x="0"
     inkscape:window-y="20"
     inkscape:window-maximized="1"
     inkscape:current-layer="レイヤー_1" /><path
     style="fill:#2f2f2f"
     inkscape:connector-curvature="0"
     id="path5"
     d="m 106.23,78.11 c 0,17.91 -19.34,32.42 -43.2,32.42 -23.86,0 -43.2,-14.51 -43.2,-32.42 0,-17.91 19.33,-32.41 43.19,-32.41 23.87,0 43.21,14.51 43.21,32.41 z" /><path
     style="fill:#ffcc00;stroke:#000000;stroke-opacity:1;stroke-width:3;stroke-miterlimit:4;stroke-dasharray:none;fill-opacity:1"
     d="m 125.09,79.15 -9.04,-1.63 c -0.14,-1.73 -0.39,-3.47 -0.77,-5.19 l 9.94,-1.48 c 1.17,-0.17 1.97,-1.26 1.8,-2.43 -0.17,-1.16 -1.25,-1.95 -2.42,-1.79 l -10.44,1.55 c -1.2,-3.68 -2.91,-7.28 -5.09,-10.64 1.05,-10.03 3.05,-37.18 -5.09,-42.64 -6.49,-4.36 -21.95,11.83 -26.94,17.63 -1.15,1.34 -2.2,2.54 -3.16,3.65 -3.48,-0.53 -7.02,-0.83 -10.54,-0.83 -3.53,0 -7.07,0.29 -10.54,0.83 C 51.83,35.07 50.79,33.87 49.64,32.53 44.66,26.72 29.2,10.54 22.7,14.9 14.55,20.38 16.57,47.54 17.61,57.55 15.47,60.85 13.78,64.38 12.58,68 L 3.42,66.63 c -1.17,-0.16 -2.25,0.63 -2.43,1.79 -0.17,1.17 0.63,2.26 1.8,2.43 l 8.64,1.29 c -0.42,1.87 -0.7,3.75 -0.84,5.62 l -7.67,1.38 c -1.16,0.21 -1.93,1.32 -1.72,2.48 0.19,1.02 1.09,1.75 2.1,1.75 0.12,0 0.25,-0.01 0.38,-0.03 l 6.76,-1.22 c 0.01,2.24 0.15,4.47 0.48,6.66 l -4.28,1.36 c -1.13,0.36 -1.75,1.56 -1.39,2.68 0.29,0.91 1.13,1.48 2.03,1.48 0.21,0 0.43,-0.02 0.65,-0.1 l 3.86,-1.23 c 1.69,6.24 5.13,11.99 11.28,16.58 6.05,4.51 13.57,7.57 21.33,9.23 2.95,0.63 10.56,2.1 18.55,2.1 7.99,0 16.35,-1.47 19.3,-2.1 7.75,-1.66 15.28,-4.72 21.33,-9.23 6.28,-4.69 9.73,-10.59 11.38,-16.98 l 5.12,1.62 c 0.21,0.08 0.43,0.1 0.65,0.1 0.9,0 1.74,-0.58 2.03,-1.48 0.35,-1.12 -0.27,-2.33 -1.39,-2.68 l -5.58,-1.77 c 0.3,-2.14 0.43,-4.31 0.43,-6.49 l 8.11,1.46 c 0.13,0.02 0.25,0.03 0.38,0.03 1.01,0 1.91,-0.73 2.1,-1.75 0.21,-1.14 -0.56,-2.25 -1.72,-2.46 z"
     id="path3794" /><path
     style="fill:#000000;fill-opacity:1"
     d="m 31.71,61.01 c -0.59,-1.02 -0.25,-2.33 0.77,-2.92 1.02,-0.59 2.33,-0.25 2.92,0.77 0.09,0.15 2.45,3.96 7.64,3.96 5.28,0 7.62,-3.92 7.64,-3.96 0.59,-1.02 1.9,-1.36 2.92,-0.77 1.02,0.59 1.36,1.9 0.77,2.92 -0.15,0.25 -3.63,6.08 -11.33,6.08 -7.71,-0.01 -11.19,-5.83 -11.33,-6.08 z"
     id="path3792" /><path
     style="fill:#000000;fill-opacity:1"
     d="m 58.16,88.33 c -0.42,1.1 -1.66,1.63 -2.76,1.23 -2.97,-1.15 -4.31,-0.84 -4.84,-0.55 -0.17,0.09 -0.69,0.37 -0.94,1.45 -0.14,0.59 0.41,2.29 2.91,3.48 0.9,0.43 1.38,1.43 1.16,2.4 -0.22,0.97 -1.08,1.66 -2.08,1.66 -0.01,0.01 -0.02,0 -0.02,0 -3.18,0 -4.56,0.86 -4.71,1.26 -0.36,0.98 -0.15,1.55 0.04,1.9 0.7,1.28 2.88,2.42 6,3.14 1.15,0.26 1.87,1.4 1.6,2.55 -0.23,0.99 -1.1,1.66 -2.08,1.66 -0.16,0 -0.32,-0.02 -0.48,-0.05 -4.51,-1.03 -7.48,-2.8 -8.81,-5.27 -0.89,-1.65 -0.99,-3.53 -0.29,-5.42 0.55,-1.49 1.85,-2.62 3.75,-3.29 -1.18,-1.7 -1.5,-3.52 -1.17,-4.97 0.44,-1.95 1.51,-3.43 3.09,-4.27 2.1,-1.12 4.92,-1 8.38,0.33 1.12,0.42 1.67,1.66 1.25,2.76 z"
     id="path3790"
     inkscape:connector-curvature="0" /><path
     style="fill:#000000;fill-opacity:1"
     d="m 96.71,61.01 c -0.15,0.25 -3.62,6.08 -11.33,6.08 -7.7,0 -11.18,-5.83 -11.33,-6.08 -0.6,-1.02 -0.25,-2.33 0.77,-2.92 1.01,-0.59 2.31,-0.25 2.91,0.76 0.12,0.19 2.48,3.97 7.65,3.97 5.28,0 7.62,-3.92 7.65,-3.96 0.59,-1.02 1.9,-1.36 2.92,-0.77 1.01,0.59 1.35,1.9 0.76,2.92 z"
     id="path7" /></svg>