<?xml version="1.0" encoding="UTF-8" standalone="no"?>
<!-- Generator: Adobe Illustrator 16.0.0, SVG Export Plug-In . SVG Version: 6.00 Build 0)  -->

<svg
   xmlns:dc="http://purl.org/dc/elements/1.1/"
   xmlns:cc="http://creativecommons.org/ns#"
   xmlns:rdf="http://www.w3.org/1999/02/22-rdf-syntax-ns#"
   xmlns:svg="http://www.w3.org/2000/svg"
   xmlns="http://www.w3.org/2000/svg"
   xmlns:sodipodi="http://sodipodi.sourceforge.net/DTD/sodipodi-0.dtd"
   xmlns:inkscape="http://www.inkscape.org/namespaces/inkscape"
   version="1.1"
   id="レイヤー_1"
   x="0px"
   y="0px"
   width="128px"
   height="128px"
   viewBox="0 0 128 128"
   enable-background="new 0 0 128 128"
   xml:space="preserve"
   inkscape:version="0.48.5 r10040"
   sodipodi:docname="cat_cry.svg"><metadata
     id="metadata15"><rdf:RDF><cc:Work
         rdf:about=""><dc:format>image/svg+xml</dc:format><dc:type
           rdf:resource="http://purl.org/dc/dcmitype/StillImage" /></cc:Work></rdf:RDF></metadata><defs
     id="defs13" /><sodipodi:namedview
     pagecolor="#ffffff"
     bordercolor="#666666"
     borderopacity="1"
     objecttolerance="10"
     gridtolerance="10"
     guidetolerance="10"
     inkscape:pageopacity="0"
     inkscape:pageshadow="2"
     inkscape:window-width="1680"
     inkscape:window-height="1011"
     id="namedview11"
     showgrid="false"
     inkscape:zoom="1.84375"
     inkscape:cx="-23.864407"
     inkscape:cy="64"
     inkscape:window-x="0"
     inkscape:window-y="20"
     inkscape:window-maximized="1"
     inkscape:current-layer="レイヤー_1" /><ellipse
     style="fill:#000000;fill-opacity:1"
     sodipodi:ry="12.37"
     sodipodi:rx="7.71"
     sodipodi:cy="94.349998"
     sodipodi:cx="97.650002"
     id="ellipse5"
     ry="12.37"
     rx="7.71"
     cy="94.349998"
     cx="97.650002" /><rect
     style="fill:#000000;fill-opacity:1"
     id="rect7"
     height="19.200808"
     width="72.483047"
     transform="matrix(0.99655816,-0.08289652,0.08289652,0.99655816,0,0)"
     y="70.659714"
     x="20.46283" /><path
     style="fill:#ffcc00;stroke:#000000;stroke-opacity:1;stroke-width:3;stroke-miterlimit:4;stroke-dasharray:none;fill-opacity:1"
     d="m 125.09,92.24 -9.49,-1.71 c 0.34,-1.72 0.55,-3.48 0.67,-5.26 l 8.95,-1.33 c 1.17,-0.17 1.97,-1.26 1.8,-2.42 -0.17,-1.16 -1.25,-1.94 -2.43,-1.79 l -8.22,1.22 c -0.02,-1 -0.05,-2 -0.12,-3 -0.25,-3.72 -1.08,-7.47 -2.41,-11.11 2.94,-8.31 12.13,-36.37 5.13,-43.87 -5.34,-5.72 -24.06,6.53 -30.24,11.07 -2.23,1.62 -4.14,3.01 -5.79,4.18 C 76.78,36.36 70.1,35.39 63.48,35.39 56.75,35.38 49.96,36.39 43.71,38.31 41.79,37.19 39.49,35.82 36.77,34.17 30.25,30.2 10.54,19.6 5.71,25.76 c -5.72,7.31 3.2,30.22 7.65,40.48 -1.46,3.83 -2.37,7.78 -2.63,11.71 -0.07,0.95 -0.1,1.9 -0.12,2.84 L 3.4,79.72 c -1.16,-0.15 -2.25,0.63 -2.42,1.79 -0.17,1.17 0.63,2.26 1.8,2.42 l 7.92,1.18 c 0.12,1.88 0.35,3.75 0.71,5.58 l -8.5,1.53 c -1.16,0.21 -1.93,1.32 -1.72,2.48 0.19,1.02 1.08,1.75 2.1,1.75 0.12,0 0.25,-0.01 0.38,-0.03 l 8.84,-1.59 c 0.65,1.97 1.51,3.88 2.58,5.71 l -8.45,2.68 c -1.12,0.36 -1.75,1.56 -1.39,2.68 0.29,0.91 1.13,1.48 2.03,1.48 0.21,0 0.43,-0.03 0.65,-0.1 l 9.69,-3.08 c 1.56,1.92 3.41,3.73 5.63,5.38 6.05,4.52 13.57,7.57 21.33,9.23 2.95,0.63 10.56,2.1 18.55,2.1 7.99,0 16.35,-1.47 19.3,-2.1 7.75,-1.66 15.28,-4.71 21.33,-9.23 2.31,-1.73 4.23,-3.62 5.82,-5.64 l 10.5,3.33 c 0.21,0.07 0.43,0.1 0.65,0.1 0.9,0 1.74,-0.57 2.03,-1.48 0.35,-1.12 -0.27,-2.33 -1.39,-2.68 l -9.31,-2.96 c 1.02,-1.8 1.84,-3.68 2.47,-5.61 l 9.8,1.77 c 0.13,0.02 0.25,0.03 0.38,0.03 1.01,0 1.91,-0.73 2.1,-1.75 0.21,-1.13 -0.56,-2.24 -1.72,-2.45 z"
     id="path3769" /><path
     style="fill:#000000;fill-opacity:1"
     d="m 51.88,74.3 c -0.1,0.28 -2.39,6.66 -9.95,8.13 -0.97,0.19 -1.88,0.28 -2.74,0.28 -5.91,0 -9.38,-3.88 -9.54,-4.06 -0.78,-0.89 -0.69,-2.23 0.2,-3.02 0.88,-0.77 2.23,-0.68 3.01,0.2 0.12,0.12 3.15,3.41 8.25,2.42 5.1,-1 6.68,-5.18 6.75,-5.37 0.4,-1.1 1.62,-1.67 2.72,-1.28 1.1,0.39 1.68,1.59 1.3,2.7 z"
     id="path3767" /><path
     style="fill:#000000;fill-opacity:1"
     d="m 84.26,81.89 c -7.55,-1.53 -9.81,-7.93 -9.9,-8.19 -0.38,-1.12 0.22,-2.33 1.33,-2.71 1.11,-0.38 2.32,0.21 2.7,1.32 0.07,0.2 1.64,4.38 6.71,5.4 5.09,1.02 8.16,-2.24 8.29,-2.38 0.79,-0.87 2.14,-0.93 3.01,-0.15 0.87,0.78 0.95,2.12 0.17,2.99 -0.17,0.18 -3.63,4 -9.49,4 -0.89,0 -1.83,-0.08 -2.82,-0.28 z"
     id="path3765" /><path
     style="fill:#007eff;fill-opacity:1;stroke:#000000;stroke-opacity:1"
     d="m 104.28,97.68 c -0.8,3.68 -4.72,6.82 -8.37,4.51 -2.57,-1.62 -2.73,-4.39 -2.21,-7.26 0.45,-2.52 1.42,-5.12 1.73,-7.08 0.1,-0.62 0.07,-1.3 0.09,-1.92 0.02,-0.83 -0.14,-2.85 1.06,-2.94 0.84,-0.07 1.75,0.72 2.39,1.17 1.55,1.13 2.76,3.13 3.73,4.77 1.55,2.64 2.23,5.71 1.58,8.75 z"
     id="path9" /></svg>