<?xml version="1.0" encoding="UTF-8" standalone="no"?>
<!-- Generator: Adobe Illustrator 16.0.0, SVG Export Plug-In . SVG Version: 6.00 Build 0)  -->

<svg
   xmlns:dc="http://purl.org/dc/elements/1.1/"
   xmlns:cc="http://creativecommons.org/ns#"
   xmlns:rdf="http://www.w3.org/1999/02/22-rdf-syntax-ns#"
   xmlns:svg="http://www.w3.org/2000/svg"
   xmlns="http://www.w3.org/2000/svg"
   xmlns:sodipodi="http://sodipodi.sourceforge.net/DTD/sodipodi-0.dtd"
   xmlns:inkscape="http://www.inkscape.org/namespaces/inkscape"
   version="1.1"
   id="レイヤー_1"
   x="0px"
   y="0px"
   width="128px"
   height="128px"
   viewBox="0 0 128 128"
   enable-background="new 0 0 128 128"
   xml:space="preserve"
   inkscape:version="0.48.5 r10040"
   sodipodi:docname="cat_weary.svg"><metadata
     id="metadata15"><rdf:RDF><cc:Work
         rdf:about=""><dc:format>image/svg+xml</dc:format><dc:type
           rdf:resource="http://purl.org/dc/dcmitype/StillImage" /></cc:Work></rdf:RDF></metadata><defs
     id="defs13" /><sodipodi:namedview
     pagecolor="#ffffff"
     bordercolor="#666666"
     borderopacity="1"
     objecttolerance="10"
     gridtolerance="10"
     guidetolerance="10"
     inkscape:pageopacity="0"
     inkscape:pageshadow="2"
     inkscape:window-width="682"
     inkscape:window-height="480"
     id="namedview11"
     showgrid="false"
     inkscape:zoom="3.6875"
     inkscape:cx="90.186475"
     inkscape:cy="45.928809"
     inkscape:window-x="0"
     inkscape:window-y="20"
     inkscape:window-maximized="0"
     inkscape:current-layer="レイヤー_1" /><path
     style="fill:#000000;fill-opacity:1;stroke:none;stroke-opacity:1"
     inkscape:connector-curvature="0"
     id="path5"
     d="m 95.58,103.04 c 0.6,6.98 -11.94,13.77 -28.02,15.17 -16.08,1.4 -29.61,-3.12 -30.21,-10.11 -0.61,-6.98 11.94,-13.77 28.02,-15.17 16.07,-1.39 29.6,3.14 30.21,10.11 z" /><rect
     style="fill:#000000;fill-opacity:1;stroke:none;stroke-opacity:1"
     id="rect7"
     height="19.199259"
     width="73.067177"
     transform="matrix(0.99803854,-0.06260242,0.06260242,0.99803854,0,0)"
     y="73.700676"
     x="20.945187" /><path
     style="fill:#ffcc00;stroke:#000000;stroke-opacity:1;stroke-width:3;stroke-miterlimit:4;stroke-dasharray:none;fill-opacity:1"
     d="m 125.09,92.58 -9.49,-1.71 c 0.34,-1.72 0.55,-3.48 0.67,-5.26 l 8.95,-1.33 c 1.17,-0.17 1.97,-1.26 1.8,-2.42 -0.17,-1.17 -1.25,-1.95 -2.42,-1.8 l -8.22,1.22 c -0.02,-1 -0.05,-2 -0.11,-3 -0.23,-3.35 -0.93,-6.73 -2.04,-10.03 3.26,-9.41 11.48,-35.6 4.76,-42.81 -5.33,-5.72 -24.06,6.53 -30.23,11.06 -1.35,0.99 -2.59,1.89 -3.73,2.71 C 78.31,36.91 70.88,35.72 63.51,35.73 55.93,35.72 48.26,36.96 41.39,39.4 40.01,38.58 38.5,37.68 36.81,36.64 30.27,32.66 10.55,22.07 5.73,28.23 c -5.55,7.08 2.67,28.85 7.24,39.51 -1.21,3.47 -1.98,7.02 -2.22,10.55 -0.06,0.95 -0.09,1.9 -0.12,2.85 L 3.42,80.07 C 2.26,79.92 1.17,80.7 1,81.87 c -0.17,1.17 0.63,2.25 1.8,2.42 l 7.92,1.18 c 0.12,1.88 0.35,3.75 0.71,5.58 l -8.5,1.53 C 1.77,92.79 1,93.9 1.21,95.06 c 0.19,1.03 1.08,1.75 2.09,1.75 0.13,0 0.26,-0.01 0.38,-0.03 l 8.83,-1.59 c 0.66,1.97 1.51,3.88 2.58,5.71 l -8.45,2.68 c -1.13,0.35 -1.75,1.55 -1.39,2.68 0.29,0.91 1.13,1.49 2.03,1.49 0.21,0 0.43,-0.03 0.64,-0.1 l 9.69,-3.08 c 1.56,1.92 3.4,3.73 5.62,5.39 6.05,4.51 13.58,7.57 21.33,9.23 2.95,0.63 10.57,2.1 18.56,2.1 7.99,0 16.35,-1.47 19.3,-2.1 7.75,-1.66 15.28,-4.71 21.33,-9.23 2.31,-1.73 4.23,-3.62 5.82,-5.65 l 10.5,3.34 c 0.21,0.07 0.43,0.1 0.65,0.1 0.91,0 1.74,-0.58 2.03,-1.49 0.36,-1.12 -0.27,-2.33 -1.39,-2.68 l -9.31,-2.96 c 1.02,-1.8 1.84,-3.68 2.47,-5.61 l 9.8,1.77 c 0.13,0.02 0.25,0.03 0.38,0.03 1.01,0 1.91,-0.72 2.1,-1.75 0.22,-1.16 -0.55,-2.26 -1.71,-2.48 z"
     id="path3769" /><path
     style="fill:#000000;fill-opacity:1;stroke:none;stroke-opacity:1"
     d="m 42.82,84.64 c -1.89,0.79 -3.67,1.08 -5.26,1.08 -4.39,0 -7.36,-2.21 -7.53,-2.34 -0.94,-0.72 -1.12,-2.05 -0.4,-2.99 0.71,-0.94 2.05,-1.12 2.99,-0.41 0.14,0.1 3.78,2.71 8.57,0.72 4.88,-2.03 5.53,-6.53 5.54,-6.58 0.16,-1.17 1.22,-1.99 2.4,-1.83 1.17,0.15 1.98,1.23 1.83,2.4 -0.05,0.28 -1.03,6.99 -8.14,9.95 z"
     id="path3767" /><path
     style="fill:#000000;fill-opacity:1;stroke:none"
     d="m 80.7,111.61 c -5.48,0.65 -5.99,-1.7 -11.43,-1.09 -5.43,0.68 -5.39,3.08 -10.86,3.72 -5.67,0.67 -9.01,-1.57 -10.25,-5.2 -1.17,-3.38 0.67,-8.52 5.94,-9.8 5.77,-1.39 8.015254,-0.764237 12.985254,-1.274237 C 72.035254,97.305763 75.45,96.02 81.39,96.02 c 5.42,0.02 8.42,4.58 8.07,8.14 -0.36,3.82 -3.09,6.78 -8.76,7.45 z"
     id="path3765"
     inkscape:connector-curvature="0"
     sodipodi:nodetypes="ccccccccc" /><path
     style="fill:#000000;fill-opacity:1;stroke:none;stroke-opacity:1"
     d="m 96.39,81.99 c -0.17,0.15 -3.39,2.95 -8.33,2.95 -1.33,0 -2.78,-0.2 -4.33,-0.71 -7.32,-2.4 -8.81,-9.02 -8.87,-9.3 -0.24,-1.15 0.49,-2.29 1.64,-2.53 1.14,-0.24 2.28,0.48 2.53,1.62 0.05,0.2 1.1,4.54 6.03,6.16 5.01,1.65 8.46,-1.34 8.5,-1.38 0.88,-0.78 2.22,-0.71 3.01,0.18 0.78,0.88 0.7,2.23 -0.18,3.01 z"
     id="path9" /></svg>