<?xml version="1.0" encoding="UTF-8" standalone="no"?>
<!-- Created with Inkscape (http://www.inkscape.org/) -->

<svg
   xmlns:dc="http://purl.org/dc/elements/1.1/"
   xmlns:cc="http://creativecommons.org/ns#"
   xmlns:rdf="http://www.w3.org/1999/02/22-rdf-syntax-ns#"
   xmlns:svg="http://www.w3.org/2000/svg"
   xmlns="http://www.w3.org/2000/svg"
   xmlns:xlink="http://www.w3.org/1999/xlink"
   xmlns:sodipodi="http://sodipodi.sourceforge.net/DTD/sodipodi-0.dtd"
   xmlns:inkscape="http://www.inkscape.org/namespaces/inkscape"
   width="30.223339"
   height="30.223339"
   id="svg2"
   version="1.1"
   inkscape:version="0.48.5 r10040"
   sodipodi:docname="cold_sweat.svg">
  <defs
     id="defs4">
    <linearGradient
       inkscape:collect="always"
       xlink:href="#linearGradient3181"
       id="linearGradient3187"
       x1="14.965159"
       y1="231.7083"
       x2="14.965159"
       y2="244.56258"
       gradientUnits="userSpaceOnUse" />
    <linearGradient
       id="linearGradient3181">
      <stop
         style="stop-color:#ff2000;stop-opacity:1;"
         offset="0"
         id="stop3183" />
      <stop
         style="stop-color:#ffcc00;stop-opacity:1;"
         offset="1"
         id="stop3185" />
    </linearGradient>
  </defs>
  <sodipodi:namedview
     id="base"
     pagecolor="#ffffff"
     bordercolor="#666666"
     borderopacity="1.0"
     inkscape:pageopacity="0.0"
     inkscape:pageshadow="2"
     inkscape:zoom="5.6"
     inkscape:cx="5.3580573"
     inkscape:cy="3.597075"
     inkscape:document-units="px"
     inkscape:current-layer="layer4"
     showgrid="false"
     fit-margin-top="0"
     fit-margin-left="0"
     fit-margin-right="0"
     fit-margin-bottom="0"
     inkscape:window-width="1680"
     inkscape:window-height="1011"
     inkscape:window-x="0"
     inkscape:window-y="20"
     inkscape:window-maximized="1" />
  <metadata
     id="metadata7">
    <rdf:RDF>
      <cc:Work
         rdf:about="">
        <dc:format>image/svg+xml</dc:format>
        <dc:type
           rdf:resource="http://purl.org/dc/dcmitype/StillImage" />
        <dc:title />
      </cc:Work>
    </rdf:RDF>
  </metadata>
  <g
     inkscape:groupmode="layer"
     id="layer4"
     inkscape:label="crying">
    <path
       transform="matrix(0.88628187,0,0,0.88628187,1.04371,-197.54267)"
       d="m 32,240 a 16,16 0 1 1 -32,0 16,16 0 1 1 32,0 z"
       sodipodi:ry="16"
       sodipodi:rx="16"
       sodipodi:cy="240"
       sodipodi:cx="16"
       id="path2987-2-8"
       style="fill:#ffcc00;fill-opacity:1;stroke:#000000;stroke-width:1.12830925000000004;stroke-linecap:butt;stroke-linejoin:bevel;stroke-miterlimit:4;stroke-opacity:1;stroke-dasharray:none;stroke-dashoffset:0;"
       sodipodi:type="arc" />
    <path
       style="fill:#007eff;fill-opacity:1;stroke:#000000;stroke-width:0.33466932;stroke-linecap:butt;stroke-linejoin:miter;stroke-opacity:1"
       d="m 6.6113628,2.3293388 c 0,0 -2.9518249,4.0823217 -2.5739916,5.708963 0.3778675,1.6267734 1.640806,2.4513052 2.908566,2.4257852 C 8.1710789,10.44044 9.446035,9.2031313 9.653697,8.0093505 10.021205,5.8993297 6.6113628,2.3293388 6.6113628,2.3293388 z"
       id="path4283"
       inkscape:connector-curvature="0"
       sodipodi:nodetypes="czaac" />
    <path
       inkscape:connector-curvature="0"
       id="path4459-9"
       d="m 8.6980104,19.427334 13.7924386,0"
       style="fill:none;stroke:#000000;stroke-width:1.5;stroke-linecap:round;stroke-linejoin:round;stroke-miterlimit:4;stroke-opacity:1;stroke-dasharray:none" />
    <path
       id="path3781-26-7-9"
       d="m 11.00123,16.71173 c -1.4356993,0 -2.5809943,-1.2055 -2.5809943,-2.7168 0,-0.4945 0.144275,-0.9581 0.362245,-1.3584 -0.01753,0.091 -0.04528,0.1765 -0.04528,0.2717 0,1.0104 1.000947,1.8112 2.2640303,1.8112 1.263084,0 2.309311,-0.8008 2.309311,-1.8112 0,-0.08 -0.03293,-0.1495 -0.04528,-0.2264 0.203088,0.3899 0.362245,0.8371 0.362245,1.3131 0,1.5113 -1.190576,2.7168 -2.626275,2.7168 z"
       style="fill:#000000;fill-opacity:1;stroke:none;display:inline"
       inkscape:connector-curvature="0" />
    <path
       id="path3781-5-29-1-6"
       d="m 19.722531,16.71173 c -1.4357,0 -2.580995,-1.2055 -2.580995,-2.7168 0,-0.4584 0.127713,-0.8883 0.316964,-1.2679 0,1.0105 1.000947,1.8113 2.264031,1.8113 1.263085,0 2.309312,-0.8008 2.309312,-1.8113 0.185411,0.3766 0.316964,0.8145 0.316964,1.2679 0,1.5113 -1.190576,2.7168 -2.626276,2.7168 z"
       style="fill:#000000;fill-opacity:1;stroke:none;display:inline"
       inkscape:connector-curvature="0" />
  </g>
</svg>
