<?xml version="1.0" encoding="UTF-8" standalone="no"?>
<!-- Created with Inkscape (http://www.inkscape.org/) -->

<svg
   xmlns:dc="http://purl.org/dc/elements/1.1/"
   xmlns:cc="http://creativecommons.org/ns#"
   xmlns:rdf="http://www.w3.org/1999/02/22-rdf-syntax-ns#"
   xmlns:svg="http://www.w3.org/2000/svg"
   xmlns="http://www.w3.org/2000/svg"
   xmlns:sodipodi="http://sodipodi.sourceforge.net/DTD/sodipodi-0.dtd"
   xmlns:inkscape="http://www.inkscape.org/namespaces/inkscape"
   width="30.223339"
   height="30.223339"
   id="svg2"
   version="1.1"
   inkscape:version="0.48.5 r10040"
   sodipodi:docname="crying_loudly.svg">
  <defs
     id="defs4">
    <linearGradient
       id="linearGradient3181">
      <stop
         style="stop-color:#ff2000;stop-opacity:1;"
         offset="0"
         id="stop3183" />
      <stop
         style="stop-color:#ffcc00;stop-opacity:1;"
         offset="1"
         id="stop3185" />
    </linearGradient>
  </defs>
  <sodipodi:namedview
     id="base"
     pagecolor="#ffffff"
     bordercolor="#666666"
     borderopacity="1.0"
     inkscape:pageopacity="0.0"
     inkscape:pageshadow="2"
     inkscape:zoom="15.999999"
     inkscape:cx="0.17985642"
     inkscape:cy="8.7405111"
     inkscape:document-units="px"
     inkscape:current-layer="layer5"
     showgrid="false"
     fit-margin-top="0"
     fit-margin-left="0"
     fit-margin-right="0"
     fit-margin-bottom="0"
     inkscape:window-width="1680"
     inkscape:window-height="1011"
     inkscape:window-x="0"
     inkscape:window-y="20"
     inkscape:window-maximized="1" />
  <metadata
     id="metadata7">
    <rdf:RDF>
      <cc:Work
         rdf:about="">
        <dc:format>image/svg+xml</dc:format>
        <dc:type
           rdf:resource="http://purl.org/dc/dcmitype/StillImage" />
        <dc:title />
      </cc:Work>
    </rdf:RDF>
  </metadata>
  <g
     inkscape:groupmode="layer"
     id="layer5"
     inkscape:label="Layer">
    <path
       sodipodi:type="arc"
       style="fill:#ffcc00;fill-opacity:1;stroke:#000000;stroke-width:1.12830925000000004;stroke-linecap:butt;stroke-linejoin:bevel;stroke-miterlimit:4;stroke-opacity:1;stroke-dasharray:none;stroke-dashoffset:0;"
       id="path2987-19-4"
       sodipodi:cx="16"
       sodipodi:cy="240"
       sodipodi:rx="16"
       sodipodi:ry="16"
       d="m 32,240 a 16,16 0 1 1 -32,0 16,16 0 1 1 32,0 z"
       transform="matrix(0.88628187,0,0,0.88628187,1.088884,-197.87312)" />
    <path
       style="fill:#000000;fill-opacity:1;stroke:#000000;stroke-width:0.89863616px;stroke-linecap:round;stroke-linejoin:round;stroke-opacity:1;display:inline"
       d="m 6.5905444,23.788879 17.5692586,0 c -0.04833,-4.05179 -2.848073,-9.317953 -8.92864,-9.12598 -6.346539,-0.01052 -8.6736285,4.844252 -8.6406186,9.12598 z"
       id="path4387-2"
       inkscape:connector-curvature="0"
       sodipodi:nodetypes="cccc" />
    <path
       style="fill:none;stroke:#000000;stroke-width:1.5;stroke-linecap:round;stroke-linejoin:round;stroke-miterlimit:4;stroke-opacity:1;stroke-dasharray:none;display:inline"
       d="m 7.5181432,7.8130115 5.2198808,2.05271 -5.0110908,1.8159005"
       id="path3142-2"
       inkscape:connector-curvature="0" />
    <path
       style="fill:none;stroke:#000000;stroke-width:1.5;stroke-linecap:round;stroke-linejoin:round;stroke-miterlimit:4;stroke-opacity:1;stroke-dasharray:none;display:inline"
       d="m 23.241003,7.7528615 -5.219879,2.05276 5.011089,1.8159005"
       id="path3142-8-6"
       inkscape:connector-curvature="0" />
    <path
       style="fill:#007eff;fill-opacity:1;stroke:#000000;stroke-width:0.35499998999999999;stroke-linecap:round;stroke-linejoin:round;stroke-miterlimit:4;stroke-opacity:1;stroke-dasharray:none"
       d="m 24.707235,25.031766 c 0.550741,-1.019189 1.38404,-1.740532 1.285002,-3.792887 -0.482261,-2.273774 -1.238091,-2.127271 -1.053079,-3.579729 1.109567,-1.852629 0.80831,-2.706661 0.666054,-3.422557 -0.650394,-1.368108 -1.581215,-1.710029 -3.058821,-2.478015 l -3.296257,-0.8308 c 0.997647,3.162408 4.495061,2.920207 2.299937,6.151874 -0.209016,1.102702 -0.906241,2.345512 -0.15717,3.858758 1.447454,3.342195 -0.206412,4.32839 -0.482995,6.58049"
       id="path3066-7"
       inkscape:connector-curvature="0"
       sodipodi:nodetypes="ccccccccc" />
    <path
       style="fill:#007eff;fill-opacity:1;stroke:#000000;stroke-width:0.35499999999999998;stroke-linecap:round;stroke-linejoin:round;stroke-miterlimit:4;stroke-opacity:1;stroke-dasharray:none"
       d="M 5.8474948,25.014247 C 5.2967545,23.995058 4.4087674,23.344028 4.5078056,21.291673 4.9900664,19.017899 5.7458964,19.164402 5.5608841,17.711944 4.4513168,15.859315 4.7525739,15.005283 4.8948298,14.289387 5.5452238,12.921279 6.4760455,12.579358 7.9536511,11.811372 l 3.2962569,-0.8308 c -0.997647,3.162408 -4.4950609,2.920207 -2.2999367,6.151874 0.2090158,1.102702 0.9062411,2.345512 0.1571701,3.858758 -1.4474537,3.342195 0.2064116,4.32839 0.4829951,6.58049"
       id="path3066"
       inkscape:connector-curvature="0"
       sodipodi:nodetypes="ccccccccc" />
  </g>
</svg>
