<?xml version="1.0" encoding="UTF-8" standalone="no"?>
<!-- Created with Inkscape (http://www.inkscape.org/) -->

<svg
   xmlns:dc="http://purl.org/dc/elements/1.1/"
   xmlns:cc="http://creativecommons.org/ns#"
   xmlns:rdf="http://www.w3.org/1999/02/22-rdf-syntax-ns#"
   xmlns:svg="http://www.w3.org/2000/svg"
   xmlns="http://www.w3.org/2000/svg"
   xmlns:sodipodi="http://sodipodi.sourceforge.net/DTD/sodipodi-0.dtd"
   xmlns:inkscape="http://www.inkscape.org/namespaces/inkscape"
   width="29.383404"
   height="32.204327"
   id="svg2"
   version="1.1"
   inkscape:version="0.48.5 r10040"
   sodipodi:docname="devil.svg">
  <defs
     id="defs4">
    <linearGradient
       id="linearGradient3181">
      <stop
         style="stop-color:#ff2000;stop-opacity:1;"
         offset="0"
         id="stop3183" />
      <stop
         style="stop-color:#ffcc00;stop-opacity:1;"
         offset="1"
         id="stop3185" />
    </linearGradient>
  </defs>
  <sodipodi:namedview
     id="base"
     pagecolor="#ffffff"
     bordercolor="#666666"
     borderopacity="1.0"
     inkscape:pageopacity="0.0"
     inkscape:pageshadow="2"
     inkscape:zoom="11.2"
     inkscape:cx="4.8763221"
     inkscape:cy="15.207187"
     inkscape:document-units="px"
     inkscape:current-layer="layer3"
     showgrid="false"
     fit-margin-top="0"
     fit-margin-left="0"
     fit-margin-right="0"
     fit-margin-bottom="0"
     inkscape:window-width="840"
     inkscape:window-height="1009"
     inkscape:window-x="0"
     inkscape:window-y="20"
     inkscape:window-maximized="0" />
  <metadata
     id="metadata7">
    <rdf:RDF>
      <cc:Work
         rdf:about="">
        <dc:format>image/svg+xml</dc:format>
        <dc:type
           rdf:resource="http://purl.org/dc/dcmitype/StillImage" />
        <dc:title />
      </cc:Work>
    </rdf:RDF>
  </metadata>
  <g
     inkscape:groupmode="layer"
     id="layer3"
     inkscape:label="angry face"
     style="display:inline"
     transform="translate(-0.40877598,2.4121387)">
    <path
       style="fill:#9f519f;fill-opacity:1;stroke:#000000;stroke-width:1px;stroke-linecap:round;stroke-linejoin:round;stroke-opacity:1;display:inline"
       d="m 24.875006,7.1792341 2.020306,-9.0913728 -6.81853,6.8185296 z"
       id="path3797-8"
       inkscape:connector-curvature="0"
       sodipodi:nodetypes="cccc" />
    <path
       style="fill:#9f519f;fill-opacity:1;stroke:#000000;stroke-width:1px;stroke-linecap:round;stroke-linejoin:round;stroke-opacity:1"
       d="M 4.7982246,7.3686377 2.7779195,-1.7227351 9.5964492,5.0957945 z"
       id="path3797"
       inkscape:connector-curvature="0"
       sodipodi:nodetypes="cccc" />
    <path
       sodipodi:type="arc"
       style="fill:#c8a6e7;fill-opacity:1;stroke:#000000;stroke-width:1.12830925;stroke-linecap:butt;stroke-linejoin:bevel;stroke-miterlimit:4;stroke-opacity:1;stroke-dasharray:none;stroke-dashoffset:0"
       id="path2987-19-2"
       sodipodi:cx="16"
       sodipodi:cy="240"
       sodipodi:rx="16"
       sodipodi:ry="16"
       d="m 32,240 c 0,8.83656 -7.163444,16 -16,16 -8.836556,0 -16,-7.16344 -16,-16 0,-8.83656 7.163444,-16 16,-16 8.836556,0 16,7.16344 16,16 z"
       transform="matrix(0.88628187,0,0,0.88628187,0.908776,-197.66288)" />
    <path
       inkscape:connector-curvature="0"
       id="path4459-1-0"
       d="M 17.5795,9.7741693 23.376946,7.3659807"
       style="fill:none;stroke:#000000;stroke-width:1.5;stroke-linecap:round;stroke-linejoin:round;stroke-miterlimit:4;stroke-opacity:1;stroke-dasharray:none" />
    <path
       inkscape:connector-curvature="0"
       id="path4459-1-0-1"
       d="M 7.3460727,7.3564676 13.135573,9.7836124"
       style="fill:none;stroke:#000000;stroke-width:1.5;stroke-linecap:round;stroke-linejoin:round;stroke-miterlimit:4;stroke-opacity:1;stroke-dasharray:none" />
    <path
       sodipodi:type="arc"
       style="fill:#000000;fill-opacity:1;stroke:none;display:inline"
       id="path3781-3"
       sodipodi:cx="12.142858"
       sodipodi:cy="238.5"
       sodipodi:rx="1.9642857"
       sodipodi:ry="3.9285715"
       d="m 14.107143,238.5 c 0,2.16969 -0.87944,3.92857 -1.964285,3.92857 -1.084846,0 -1.964286,-1.75888 -1.964286,-3.92857 0,-2.16969 0.87944,-3.92857 1.964286,-3.92857 1.084845,0 1.964285,1.75888 1.964285,3.92857 z"
       transform="matrix(0.91334205,0,0,0.48070635,-0.59116077,-103.9787)" />
    <path
       sodipodi:type="arc"
       style="fill:#000000;fill-opacity:1;stroke:none;display:inline"
       id="path3781-5-0"
       sodipodi:cx="12.142858"
       sodipodi:cy="238.5"
       sodipodi:rx="1.9642857"
       sodipodi:ry="3.9285715"
       d="m 14.107143,238.5 c 0,2.16969 -0.87944,3.92857 -1.964285,3.92857 -1.084846,0 -1.964286,-1.75888 -1.964286,-3.92857 0,-2.16969 0.87944,-3.92857 1.964286,-3.92857 1.084845,0 1.964285,1.75888 1.964285,3.92857 z"
       transform="matrix(0.91334205,0,0,0.48070635,8.9457104,-103.9787)" />
    <path
       style="fill:none;stroke:#000000;stroke-width:1.5;stroke-linecap:round;stroke-linejoin:miter;stroke-opacity:1;display:inline"
       d="m 6.8749991,16.901925 c 0,0 1.819661,4.3214 8.4642869,4.3214 6.644625,0 8.321429,-4.3214 8.321429,-4.3214"
       id="path3809-7"
       inkscape:connector-curvature="0"
       sodipodi:nodetypes="czc" />
  </g>
</svg>
