<?xml version="1.0" encoding="UTF-8" standalone="no"?>
<!-- Created with Inkscape (http://www.inkscape.org/) -->

<svg
   xmlns:dc="http://purl.org/dc/elements/1.1/"
   xmlns:cc="http://creativecommons.org/ns#"
   xmlns:rdf="http://www.w3.org/1999/02/22-rdf-syntax-ns#"
   xmlns:svg="http://www.w3.org/2000/svg"
   xmlns="http://www.w3.org/2000/svg"
   xmlns:sodipodi="http://sodipodi.sourceforge.net/DTD/sodipodi-0.dtd"
   xmlns:inkscape="http://www.inkscape.org/namespaces/inkscape"
   width="30.223339"
   height="30.223339"
   id="svg2"
   version="1.1"
   inkscape:version="0.48.5 r10040"
   sodipodi:docname="happy_black.svg">
  <defs
     id="defs4" />
  <sodipodi:namedview
     id="base"
     pagecolor="#ffffff"
     bordercolor="#666666"
     borderopacity="1.0"
     inkscape:pageopacity="0.0"
     inkscape:pageshadow="2"
     inkscape:zoom="5.6"
     inkscape:cx="20.365635"
     inkscape:cy="-6.5102303"
     inkscape:document-units="px"
     inkscape:current-layer="layer1"
     showgrid="false"
     fit-margin-top="0"
     fit-margin-left="0"
     fit-margin-right="0"
     fit-margin-bottom="0"
     inkscape:window-width="840"
     inkscape:window-height="1009"
     inkscape:window-x="0"
     inkscape:window-y="20"
     inkscape:window-maximized="0" />
  <metadata
     id="metadata7">
    <rdf:RDF>
      <cc:Work
         rdf:about="">
        <dc:format>image/svg+xml</dc:format>
        <dc:type
           rdf:resource="http://purl.org/dc/dcmitype/StillImage" />
        <dc:title />
      </cc:Work>
    </rdf:RDF>
  </metadata>
  <g
     inkscape:label="Layer 1"
     inkscape:groupmode="layer"
     id="layer1"
     transform="translate(-5.2176508,-1016.9212)">
    <path
       sodipodi:type="arc"
       style="fill:#000000;fill-opacity:1;stroke:#000000;stroke-width:1.12830925000000004;stroke-linecap:butt;stroke-linejoin:bevel;stroke-miterlimit:4;stroke-opacity:1;stroke-dasharray:none;stroke-dashoffset:0"
       id="path2987"
       sodipodi:cx="16"
       sodipodi:cy="240"
       sodipodi:rx="16"
       sodipodi:ry="16"
       d="m 32,240 c 0,8.83656 -7.163444,16 -16,16 -8.836556,0 -16,-7.16344 -16,-16 0,-8.83656 7.163444,-16 16,-16 8.836556,0 16,7.16344 16,16 z"
       transform="matrix(0.88628187,0,0,0.88628187,6.1488101,819.32523)" />
    <path
       sodipodi:type="arc"
       style="fill:#ffcc00;fill-opacity:1;stroke:none"
       id="path3781"
       sodipodi:cx="12.142858"
       sodipodi:cy="238.5"
       sodipodi:rx="1.9642857"
       sodipodi:ry="3.9285715"
       d="m 14.107143,238.5 c 0,2.16969 -0.87944,3.92857 -1.964285,3.92857 -1.084846,0 -1.964286,-1.75888 -1.964286,-3.92857 0,-2.16969 0.87944,-3.92857 1.964286,-3.92857 1.084845,0 1.964285,1.75888 1.964285,3.92857 z"
       transform="matrix(0.91334205,0,0,0.48070635,4.6756599,912.84871)" />
    <path
       sodipodi:type="arc"
       style="fill:#ffcc00;fill-opacity:1;stroke:none"
       id="path3781-5"
       sodipodi:cx="12.142858"
       sodipodi:cy="238.5"
       sodipodi:rx="1.9642857"
       sodipodi:ry="3.9285715"
       d="m 14.107143,238.5 c 0,2.16969 -0.87944,3.92857 -1.964285,3.92857 -1.084846,0 -1.964286,-1.75888 -1.964286,-3.92857 0,-2.16969 0.87944,-3.92857 1.964286,-3.92857 1.084845,0 1.964285,1.75888 1.964285,3.92857 z"
       transform="matrix(0.91334205,0,0,0.48070635,14.212531,912.84871)" />
    <path
       style="fill:none;stroke:#ffcc00;stroke-width:1.50000000000000000;stroke-linecap:round;stroke-linejoin:miter;stroke-opacity:1;display:inline"
       d="m 12.355888,1033.4933 c 0,0 1.819661,4.3214 8.464287,4.3214 6.644625,0 8.321429,-4.3214 8.321429,-4.3214"
       id="path3809-7"
       inkscape:connector-curvature="0"
       sodipodi:nodetypes="czc" />
  </g>
</svg>
