<?xml version="1.0" encoding="UTF-8" standalone="no"?>
<!-- Created with Inkscape (http://www.inkscape.org/) -->

<svg
   xmlns:dc="http://purl.org/dc/elements/1.1/"
   xmlns:cc="http://creativecommons.org/ns#"
   xmlns:rdf="http://www.w3.org/1999/02/22-rdf-syntax-ns#"
   xmlns:svg="http://www.w3.org/2000/svg"
   xmlns="http://www.w3.org/2000/svg"
   xmlns:sodipodi="http://sodipodi.sourceforge.net/DTD/sodipodi-0.dtd"
   xmlns:inkscape="http://www.inkscape.org/namespaces/inkscape"
   width="30.223339"
   height="30.223339"
   id="svg2"
   version="1.1"
   inkscape:version="0.48.5 r10040"
   sodipodi:docname="heart_eyes.svg">
  <defs
     id="defs4" />
  <sodipodi:namedview
     id="base"
     pagecolor="#ffffff"
     bordercolor="#666666"
     borderopacity="1.0"
     inkscape:pageopacity="0.0"
     inkscape:pageshadow="2"
     inkscape:zoom="7.919596"
     inkscape:cx="-27.583833"
     inkscape:cy="15.988802"
     inkscape:document-units="px"
     inkscape:current-layer="layer2"
     showgrid="false"
     fit-margin-top="0"
     fit-margin-left="0"
     fit-margin-right="0"
     fit-margin-bottom="0"
     inkscape:window-width="1680"
     inkscape:window-height="1011"
     inkscape:window-x="0"
     inkscape:window-y="20"
     inkscape:window-maximized="1" />
  <metadata
     id="metadata7">
    <rdf:RDF>
      <cc:Work
         rdf:about="">
        <dc:format>image/svg+xml</dc:format>
        <dc:type
           rdf:resource="http://purl.org/dc/dcmitype/StillImage" />
        <dc:title />
      </cc:Work>
    </rdf:RDF>
  </metadata>
  <g
     inkscape:groupmode="layer"
     id="layer2"
     inkscape:label="smiling eyes face"
     style="display:inline">
    <path
       sodipodi:type="arc"
       style="fill:#ffcc00;fill-opacity:1;stroke:#000000;stroke-width:1.12830925;stroke-linecap:butt;stroke-linejoin:bevel;stroke-miterlimit:4;stroke-opacity:1;stroke-dasharray:none;stroke-dashoffset:0"
       id="path2987-19-5"
       sodipodi:cx="16"
       sodipodi:cy="240"
       sodipodi:rx="16"
       sodipodi:ry="16"
       d="m 32,240 a 16,16 0 1 1 -32,0 16,16 0 1 1 32,0 z"
       transform="matrix(0.88628187,0,0,0.88628187,0.98020442,-197.52)" />
    <path
       style="fill:#000000;fill-opacity:1;stroke:#000000;stroke-width:0.67305398px;stroke-linecap:round;stroke-linejoin:round;stroke-opacity:1;display:inline"
       d="m 7.3993709,18.00152 16.0865091,0 c -0.04425,2.4824 -2.607711,5.708821 -8.175112,5.591189 -5.8109259,0.0061 -7.9416212,-2.967937 -7.9113971,-5.591189 z"
       id="path4387-2-8"
       inkscape:connector-curvature="0"
       sodipodi:nodetypes="cccc" />
    <path
       inkscape:connector-curvature="0"
       style="fill:#ff0000;fill-opacity:1;stroke:#000000;stroke-width:0.69999999;stroke-linecap:round;stroke-linejoin:round;stroke-miterlimit:4;stroke-opacity:1;stroke-dasharray:none;display:inline"
       d="m 3.1123595,6.4520214 c -0.001,-1.3712003 1.110815,-2.4826003 2.485527,-2.4830003 1.353079,0 2.448361,1.0824 2.483552,2.4277003 0.03389,-1.3462003 1.128393,-2.4247003 2.4821615,-2.4293003 1.371223,0 2.488912,1.1157 2.486478,2.4862003 0.0034,3.2867 -4.9670925,6.0839996 -4.9670925,6.0839996 0,0 -4.971443,-2.7959996 -4.970626,-6.0855996 z"
       id="path2999" />
    <path
       inkscape:connector-curvature="0"
       style="fill:#ff0000;fill-opacity:1;stroke:#000000;stroke-width:0.69999999;stroke-linecap:round;stroke-linejoin:round;stroke-miterlimit:4;stroke-opacity:1;stroke-dasharray:none;display:inline"
       d="m 16.496881,5.8838106 c -10e-4,-1.3712 1.110815,-2.4826 2.485527,-2.483 1.353079,0 2.448361,1.0824 2.483552,2.4277 0.03389,-1.3462 1.128393,-2.4247 2.482161,-2.4293 1.371223,0 2.488912,1.1157 2.486478,2.4862 0.0034,3.2867 -4.967092,6.0840004 -4.967092,6.0840004 0,0 -4.971443,-2.7960004 -4.970626,-6.0856004 z"
       id="path2999-5" />
  </g>
</svg>
