<?xml version="1.0" encoding="UTF-8" standalone="no"?>
<!-- Created with Inkscape (http://www.inkscape.org/) -->

<svg
   xmlns:dc="http://purl.org/dc/elements/1.1/"
   xmlns:cc="http://creativecommons.org/ns#"
   xmlns:rdf="http://www.w3.org/1999/02/22-rdf-syntax-ns#"
   xmlns:svg="http://www.w3.org/2000/svg"
   xmlns="http://www.w3.org/2000/svg"
   xmlns:sodipodi="http://sodipodi.sourceforge.net/DTD/sodipodi-0.dtd"
   xmlns:inkscape="http://www.inkscape.org/namespaces/inkscape"
   width="30.223339"
   height="30.223339"
   id="svg2"
   version="1.1"
   inkscape:version="0.48.5 r10040"
   sodipodi:docname="Kappa.svg">
  <defs
     id="defs4">
    <linearGradient
       id="linearGradient3181">
      <stop
         style="stop-color:#ff2000;stop-opacity:1;"
         offset="0"
         id="stop3183" />
      <stop
         style="stop-color:#ffcc00;stop-opacity:1;"
         offset="1"
         id="stop3185" />
    </linearGradient>
    <linearGradient
       id="linearGradient3131">
      <stop
         style="stop-color:#ffcc00;stop-opacity:1;"
         offset="0"
         id="stop3133" />
      <stop
         style="stop-color:#0063f6;stop-opacity:1;"
         offset="1"
         id="stop3135" />
    </linearGradient>
  </defs>
  <sodipodi:namedview
     id="base"
     pagecolor="#ffffff"
     bordercolor="#666666"
     borderopacity="1.0"
     inkscape:pageopacity="0.0"
     inkscape:pageshadow="2"
     inkscape:zoom="16.000001"
     inkscape:cx="15.602236"
     inkscape:cy="6.025299"
     inkscape:document-units="px"
     inkscape:current-layer="g5195"
     showgrid="false"
     fit-margin-top="0"
     fit-margin-left="0"
     fit-margin-right="0"
     fit-margin-bottom="0"
     inkscape:window-width="1680"
     inkscape:window-height="1011"
     inkscape:window-x="0"
     inkscape:window-y="20"
     inkscape:window-maximized="1" />
  <metadata
     id="metadata7">
    <rdf:RDF>
      <cc:Work
         rdf:about="">
        <dc:format>image/svg+xml</dc:format>
        <dc:type
           rdf:resource="http://purl.org/dc/dcmitype/StillImage" />
        <dc:title />
      </cc:Work>
    </rdf:RDF>
  </metadata>
  <g
     style="display:inline"
     transform="translate(-5.2176508,-1016.9212)"
     id="g5195"
     inkscape:groupmode="layer"
     inkscape:label="Layer 1 copy">
    <path
       transform="matrix(0.88628187,0,0,0.88628187,6.1488101,819.32523)"
       d="m 32,240 c 0,8.83656 -7.163444,16 -16,16 -8.836556,0 -16,-7.16344 -16,-16 0,-8.83656 7.163444,-16 16,-16 8.836556,0 16,7.16344 16,16 z"
       sodipodi:ry="16"
       sodipodi:rx="16"
       sodipodi:cy="240"
       sodipodi:cx="16"
       id="path5197"
       style="fill:#76dfac;fill-opacity:1;stroke:#000000;stroke-width:1.12830925000000004;stroke-linecap:butt;stroke-linejoin:bevel;stroke-miterlimit:4;stroke-opacity:1;stroke-dasharray:none;stroke-dashoffset:0"
       sodipodi:type="arc" />
    <path
       transform="matrix(0.91334205,0,0,0.48070635,4.6756599,912.84871)"
       d="m 14.107143,238.5 c 0,2.16969 -0.87944,3.92857 -1.964285,3.92857 -1.084846,0 -1.964286,-1.75888 -1.964286,-3.92857 0,-2.16969 0.87944,-3.92857 1.964286,-3.92857 1.084845,0 1.964285,1.75888 1.964285,3.92857 z"
       sodipodi:ry="3.9285715"
       sodipodi:rx="1.9642857"
       sodipodi:cy="238.5"
       sodipodi:cx="12.142858"
       id="path5199"
       style="fill:#000000;fill-opacity:1;stroke:none"
       sodipodi:type="arc" />
    <path
       transform="matrix(0.91334205,0,0,0.48070635,14.212531,912.84871)"
       d="m 14.107143,238.5 c 0,2.16969 -0.87944,3.92857 -1.964285,3.92857 -1.084846,0 -1.964286,-1.75888 -1.964286,-3.92857 0,-2.16969 0.87944,-3.92857 1.964286,-3.92857 1.084845,0 1.964285,1.75888 1.964285,3.92857 z"
       sodipodi:ry="3.9285715"
       sodipodi:rx="1.9642857"
       sodipodi:cy="238.5"
       sodipodi:cx="12.142858"
       id="path5201"
       style="fill:#000000;fill-opacity:1;stroke:none"
       sodipodi:type="arc" />
    <rect
       style="fill:#fdff15;fill-opacity:1;stroke:#000000;stroke-width:0.45042944;stroke-miterlimit:4;stroke-opacity:1;stroke-dasharray:none"
       id="rect5205"
       width="11.278932"
       height="11.370612"
       x="1107.8702"
       y="1073.9502"
       transform="matrix(0.87656853,0.48127706,-0.8851628,0.46528144,0,0)"
       rx="2.5189571"
       ry="2.374995" />
    <path
       style="fill:none;stroke:#000000;stroke-width:0.5;stroke-linecap:round;stroke-linejoin:round;stroke-miterlimit:4;stroke-opacity:1;stroke-dasharray:none"
       d="m 6.5625,21.254589 8.6875,1.75 8.5,-1.59375"
       id="path5207"
       inkscape:connector-curvature="0"
       transform="translate(5.2176508,1016.9212)"
       sodipodi:nodetypes="ccc" />
    <path
       transform="matrix(0.88628187,0,0,0.88628187,6.1488101,819.32523)"
       d="m 32,240 a 16,16 0 1 1 -32,0 16,16 0 1 1 32,0 z"
       sodipodi:ry="16"
       sodipodi:rx="16"
       sodipodi:cy="240"
       sodipodi:cx="16"
       id="path5197-6"
       style="fill:none;fill-opacity:1;stroke:#000000;stroke-width:1.12830925000000004;stroke-linecap:butt;stroke-linejoin:bevel;stroke-miterlimit:4;stroke-opacity:1;stroke-dasharray:none;stroke-dashoffset:0;display:inline"
       sodipodi:type="arc" />
    <path
       style="fill:#19cf4d;stroke:#000000;stroke-width:0.50000000000000000;stroke-linecap:butt;stroke-linejoin:miter;stroke-opacity:1;stroke-miterlimit:4;stroke-dasharray:none;fill-opacity:1"
       d="m 4.8238273,5.4067412 2.563262,3.093592 4.0658637,-3.4471454 4.810502,3.249842 2.209709,-2.9168153 5.568465,2.4748736 0.961549,-2.6927037 C 17.954271,-0.34039704 10.929972,-0.39762487 4.8238273,5.4067412 z"
       id="path3784"
       inkscape:connector-curvature="0"
       transform="translate(5.2176508,1016.9212)"
       sodipodi:nodetypes="cccccccc" />
  </g>
</svg>
