<?xml version="1.0" encoding="UTF-8" standalone="no"?>
<!-- Created with Inkscape (http://www.inkscape.org/) -->

<svg
   xmlns:osb="http://www.openswatchbook.org/uri/2009/osb"
   xmlns:dc="http://purl.org/dc/elements/1.1/"
   xmlns:cc="http://creativecommons.org/ns#"
   xmlns:rdf="http://www.w3.org/1999/02/22-rdf-syntax-ns#"
   xmlns:svg="http://www.w3.org/2000/svg"
   xmlns="http://www.w3.org/2000/svg"
   xmlns:xlink="http://www.w3.org/1999/xlink"
   xmlns:sodipodi="http://sodipodi.sourceforge.net/DTD/sodipodi-0.dtd"
   xmlns:inkscape="http://www.inkscape.org/namespaces/inkscape"
   width="30.18996"
   height="29.904245"
   id="svg2"
   version="1.1"
   inkscape:version="0.48.5 r10040"
   sodipodi:docname="sleeping.svg">
  <defs
     id="defs4">
    <linearGradient
       id="linearGradient5248"
       osb:paint="solid">
      <stop
         style="stop-color:#0081ff;stop-opacity:1;"
         offset="0"
         id="stop5250" />
    </linearGradient>
    <linearGradient
       id="linearGradient3181">
      <stop
         style="stop-color:#ff2000;stop-opacity:1;"
         offset="0"
         id="stop3183" />
      <stop
         style="stop-color:#ffcc00;stop-opacity:1;"
         offset="1"
         id="stop3185" />
    </linearGradient>
    <linearGradient
       inkscape:collect="always"
       xlink:href="#linearGradient3131"
       id="linearGradient3137"
       x1="18.417803"
       y1="245.66988"
       x2="18.417803"
       y2="219.33583"
       gradientUnits="userSpaceOnUse" />
    <linearGradient
       id="linearGradient3131">
      <stop
         style="stop-color:#ffcc00;stop-opacity:1;"
         offset="0"
         id="stop3133" />
      <stop
         style="stop-color:#0063f6;stop-opacity:1;"
         offset="1"
         id="stop3135" />
    </linearGradient>
    <linearGradient
       inkscape:collect="always"
       xlink:href="#linearGradient5248"
       id="linearGradient5252"
       x1="18.16687"
       y1="1022.1602"
       x2="34.700073"
       y2="1022.1602"
       gradientUnits="userSpaceOnUse" />
  </defs>
  <sodipodi:namedview
     id="base"
     pagecolor="#ffffff"
     bordercolor="#666666"
     borderopacity="1.0"
     inkscape:pageopacity="0.0"
     inkscape:pageshadow="2"
     inkscape:zoom="5.6568545"
     inkscape:cx="27.166197"
     inkscape:cy="-12.818341"
     inkscape:document-units="px"
     inkscape:current-layer="g4927"
     showgrid="false"
     fit-margin-top="0"
     fit-margin-left="0"
     fit-margin-right="0"
     fit-margin-bottom="0"
     inkscape:window-width="1680"
     inkscape:window-height="1011"
     inkscape:window-x="0"
     inkscape:window-y="20"
     inkscape:window-maximized="1" />
  <metadata
     id="metadata7">
    <rdf:RDF>
      <cc:Work
         rdf:about="">
        <dc:format>image/svg+xml</dc:format>
        <dc:type
           rdf:resource="http://purl.org/dc/dcmitype/StillImage" />
        <dc:title />
      </cc:Work>
    </rdf:RDF>
  </metadata>
  <g
     inkscape:label="stunned"
     inkscape:groupmode="layer"
     id="g4927"
     transform="translate(-5.6488101,-1016.8091)"
     style="display:inline">
    <path
       sodipodi:type="arc"
       style="fill:#ffcc00;fill-opacity:1;stroke:#000000;stroke-width:1.12830925;stroke-linecap:butt;stroke-linejoin:bevel;stroke-miterlimit:4;stroke-opacity:1;stroke-dasharray:none;stroke-dashoffset:0"
       id="path4929"
       sodipodi:cx="16"
       sodipodi:cy="240"
       sodipodi:rx="16"
       sodipodi:ry="16"
       d="m 32,240 c 0,8.83656 -7.163444,16 -16,16 -8.836556,0 -16,-7.16344 -16,-16 0,-8.83656 7.163444,-16 16,-16 8.836556,0 16,7.16344 16,16 z"
       transform="matrix(0.88628187,0,0,0.88628187,6.1488101,819.32523)" />
    <path
       sodipodi:type="arc"
       style="fill:#000000;fill-opacity:1;stroke:none"
       id="path4937"
       sodipodi:cx="16.042484"
       sodipodi:cy="21.340311"
       sodipodi:rx="4.3752232"
       sodipodi:ry="5.1707187"
       d="m 20.417707,21.340311 c 0,2.855709 -1.958854,5.170719 -4.375223,5.170719 -2.416369,0 -4.375223,-2.31501 -4.375223,-5.170719 0,-2.855709 1.958854,-5.170719 4.375223,-5.170719 2.416369,0 4.375223,2.31501 4.375223,5.170719 z"
       transform="matrix(0.65827107,0,0,0.52991458,9.7350221,1023.9591)" />
    <path
       id="path3781-26-7-7"
       d="m 15.806301,1032.2899 c -1.4357,0 -2.580995,-1.2055 -2.580995,-2.7168 0,-0.4945 0.144275,-0.9581 0.362245,-1.3584 -0.01753,0.091 -0.04528,0.1765 -0.04528,0.2717 0,1.0104 1.000947,1.8112 2.264031,1.8112 1.263084,0 2.30931,-0.8008 2.30931,-1.8112 0,-0.08 -0.03293,-0.1495 -0.04528,-0.2264 0.203088,0.3899 0.362245,0.8371 0.362245,1.3131 0,1.5113 -1.190575,2.7168 -2.626274,2.7168 z"
       style="fill:#000000;fill-opacity:1;stroke:none;display:inline"
       inkscape:connector-curvature="0" />
    <path
       id="path3781-5-29-1-1"
       d="m 24.527601,1032.2899 c -1.4357,0 -2.580995,-1.2055 -2.580995,-2.7168 0,-0.4584 0.127713,-0.8883 0.316964,-1.2679 0,1.0105 1.000947,1.8113 2.264031,1.8113 1.263085,0 2.309312,-0.8008 2.309312,-1.8113 0.185411,0.3766 0.316964,0.8145 0.316964,1.2679 0,1.5113 -1.190576,2.7168 -2.626276,2.7168 z"
       style="fill:#000000;fill-opacity:1;stroke:none;display:inline"
       inkscape:connector-curvature="0" />
    <text
       xml:space="preserve"
       style="font-size:40px;font-style:normal;font-weight:normal;line-height:125%;letter-spacing:0px;word-spacing:0px;fill:#007eff;fill-opacity:1;stroke:none;font-family:Sans"
       x="13.761622"
       y="1023.9185"
       id="text3012"
       sodipodi:linespacing="125%"><tspan
         sodipodi:role="line"
         id="tspan3014"
         x="13.761622"
         y="1023.9185"
         style="font-size:13px;font-weight:bold;fill:#007eff;fill-opacity:1;stroke:none;-inkscape-font-specification:Sans Bold">zzz</tspan></text>
  </g>
</svg>
