<?xml version="1.0" encoding="UTF-8" standalone="no"?>
<!-- Created with Inkscape (http://www.inkscape.org/) -->

<svg
   xmlns:dc="http://purl.org/dc/elements/1.1/"
   xmlns:cc="http://creativecommons.org/ns#"
   xmlns:rdf="http://www.w3.org/1999/02/22-rdf-syntax-ns#"
   xmlns:svg="http://www.w3.org/2000/svg"
   xmlns="http://www.w3.org/2000/svg"
   xmlns:xlink="http://www.w3.org/1999/xlink"
   xmlns:sodipodi="http://sodipodi.sourceforge.net/DTD/sodipodi-0.dtd"
   xmlns:inkscape="http://www.inkscape.org/namespaces/inkscape"
   width="30.223339"
   height="30.223339"
   id="svg2"
   version="1.1"
   inkscape:version="0.48.5 r10040"
   sodipodi:docname="toothy.svg">
  <defs
     id="defs4">
    <linearGradient
       inkscape:collect="always"
       xlink:href="#linearGradient3181"
       id="linearGradient3187"
       x1="14.965159"
       y1="231.7083"
       x2="14.965159"
       y2="244.56258"
       gradientUnits="userSpaceOnUse" />
    <linearGradient
       id="linearGradient3181">
      <stop
         style="stop-color:#ff2000;stop-opacity:1;"
         offset="0"
         id="stop3183" />
      <stop
         style="stop-color:#ffcc00;stop-opacity:1;"
         offset="1"
         id="stop3185" />
    </linearGradient>
  </defs>
  <sodipodi:namedview
     id="base"
     pagecolor="#ffffff"
     bordercolor="#666666"
     borderopacity="1.0"
     inkscape:pageopacity="0.0"
     inkscape:pageshadow="2"
     inkscape:zoom="22.4"
     inkscape:cx="23.691761"
     inkscape:cy="13.866992"
     inkscape:document-units="px"
     inkscape:current-layer="g4028"
     showgrid="false"
     fit-margin-top="0"
     fit-margin-left="0"
     fit-margin-right="0"
     fit-margin-bottom="0"
     inkscape:window-width="1680"
     inkscape:window-height="1011"
     inkscape:window-x="0"
     inkscape:window-y="20"
     inkscape:window-maximized="1" />
  <metadata
     id="metadata7">
    <rdf:RDF>
      <cc:Work
         rdf:about="">
        <dc:format>image/svg+xml</dc:format>
        <dc:type
           rdf:resource="http://purl.org/dc/dcmitype/StillImage" />
        <dc:title></dc:title>
      </cc:Work>
    </rdf:RDF>
  </metadata>
  <g
     style="display:inline"
     transform="translate(-5.2176508,-1016.9212)"
     id="g4028"
     inkscape:groupmode="layer"
     inkscape:label="cat">
    <path
       transform="matrix(0.88628187,0,0,0.88628187,6.1488101,819.32523)"
       d="m 32,240 c 0,8.83656 -7.163444,16 -16,16 -8.836556,0 -16,-7.16344 -16,-16 0,-8.83656 7.163444,-16 16,-16 8.836556,0 16,7.16344 16,16 z"
       sodipodi:ry="16"
       sodipodi:rx="16"
       sodipodi:cy="240"
       sodipodi:cx="16"
       id="path4030"
       style="fill:#ffcc00;fill-opacity:1;stroke:#000000;stroke-width:1.12830925;stroke-linecap:butt;stroke-linejoin:bevel;stroke-miterlimit:4;stroke-opacity:1;stroke-dasharray:none;stroke-dashoffset:0"
       sodipodi:type="arc" />
    <path
       transform="matrix(0.91334205,0,0,0.48070635,4.6756599,912.84871)"
       d="m 14.107143,238.5 c 0,2.16969 -0.87944,3.92857 -1.964285,3.92857 -1.084846,0 -1.964286,-1.75888 -1.964286,-3.92857 0,-2.16969 0.87944,-3.92857 1.964286,-3.92857 1.084845,0 1.964285,1.75888 1.964285,3.92857 z"
       sodipodi:ry="3.9285715"
       sodipodi:rx="1.9642857"
       sodipodi:cy="238.5"
       sodipodi:cx="12.142858"
       id="path4032"
       style="fill:#000000;fill-opacity:1;stroke:none"
       sodipodi:type="arc" />
    <path
       transform="matrix(0.91334205,0,0,0.48070635,14.212531,912.84871)"
       d="m 14.107143,238.5 c 0,2.16969 -0.87944,3.92857 -1.964285,3.92857 -1.084846,0 -1.964286,-1.75888 -1.964286,-3.92857 0,-2.16969 0.87944,-3.92857 1.964286,-3.92857 1.084845,0 1.964285,1.75888 1.964285,3.92857 z"
       sodipodi:ry="3.9285715"
       sodipodi:rx="1.9642857"
       sodipodi:cy="238.5"
       sodipodi:cx="12.142858"
       id="path4034"
       style="fill:#000000;fill-opacity:1;stroke:none"
       sodipodi:type="arc" />
    <path
       sodipodi:nodetypes="cszsc"
       inkscape:connector-curvature="0"
       id="path4036"
       d="m 14.269358,1035.1274 c 0,0 -0.84308,4.8086 2.947873,4.8244 3.539421,0.015 2.875813,-4.5742 3.03427,-4.6012 0.158457,-0.027 -0.914968,4.5932 2.670188,4.598 3.208223,0 3.133384,-4.7319 3.133384,-4.7319"
       style="fill:#ffffff;fill-opacity:1;stroke:#000000;stroke-width:1;stroke-linecap:round;stroke-linejoin:bevel;stroke-miterlimit:4;stroke-opacity:1;stroke-dasharray:none" />
    <path
       style="fill:none;stroke:#000000;stroke-width:1px;stroke-linecap:round;stroke-linejoin:round;stroke-opacity:1"
       d="M 9.0178572,18.035839 20.848214,18.21441"
       id="path3780"
       inkscape:connector-curvature="0"
       transform="translate(5.2176508,1016.9212)" />
  </g>
</svg>
