<?xml version="1.0" encoding="UTF-8" standalone="no"?>
<!-- Created with Inkscape (http://www.inkscape.org/) -->

<svg
   xmlns:dc="http://purl.org/dc/elements/1.1/"
   xmlns:cc="http://creativecommons.org/ns#"
   xmlns:rdf="http://www.w3.org/1999/02/22-rdf-syntax-ns#"
   xmlns:svg="http://www.w3.org/2000/svg"
   xmlns="http://www.w3.org/2000/svg"
   xmlns:sodipodi="http://sodipodi.sourceforge.net/DTD/sodipodi-0.dtd"
   xmlns:inkscape="http://www.inkscape.org/namespaces/inkscape"
   width="30.223339"
   height="30.223339"
   id="svg2"
   version="1.1"
   inkscape:version="0.48.5 r10040"
   sodipodi:docname="triumph.svg">
  <defs
     id="defs4">
    <linearGradient
       id="linearGradient3181">
      <stop
         style="stop-color:#ff2000;stop-opacity:1;"
         offset="0"
         id="stop3183" />
      <stop
         style="stop-color:#ffcc00;stop-opacity:1;"
         offset="1"
         id="stop3185" />
    </linearGradient>
  </defs>
  <sodipodi:namedview
     id="base"
     pagecolor="#ffffff"
     bordercolor="#666666"
     borderopacity="1.0"
     inkscape:pageopacity="0.0"
     inkscape:pageshadow="2"
     inkscape:zoom="11.2"
     inkscape:cx="4.3337511"
     inkscape:cy="8.9251044"
     inkscape:document-units="px"
     inkscape:current-layer="layer3"
     showgrid="false"
     fit-margin-top="0"
     fit-margin-left="0"
     fit-margin-right="0"
     fit-margin-bottom="0"
     inkscape:window-width="840"
     inkscape:window-height="1009"
     inkscape:window-x="0"
     inkscape:window-y="20"
     inkscape:window-maximized="0" />
  <metadata
     id="metadata7">
    <rdf:RDF>
      <cc:Work
         rdf:about="">
        <dc:format>image/svg+xml</dc:format>
        <dc:type
           rdf:resource="http://purl.org/dc/dcmitype/StillImage" />
        <dc:title />
      </cc:Work>
    </rdf:RDF>
  </metadata>
  <g
     inkscape:groupmode="layer"
     id="layer3"
     inkscape:label="angry face"
     style="display:inline">
    <path
       sodipodi:type="arc"
       style="fill:#ffcc00;fill-opacity:1;stroke:#000000;stroke-width:1.12830925000000004;stroke-linecap:butt;stroke-linejoin:bevel;stroke-miterlimit:4;stroke-opacity:1;stroke-dasharray:none;stroke-dashoffset:0"
       id="path2987-19-2"
       sodipodi:cx="16"
       sodipodi:cy="240"
       sodipodi:rx="16"
       sodipodi:ry="16"
       d="m 32,240 a 16,16 0 1 1 -32,0 16,16 0 1 1 32,0 z"
       transform="matrix(0.88628187,0,0,0.88628187,0.908776,-197.66288)" />
    <path
       inkscape:connector-curvature="0"
       id="path4459-1-0"
       d="M 17.5795,9.7741693 23.376946,7.3659807"
       style="fill:none;stroke:#000000;stroke-width:1.5;stroke-linecap:round;stroke-linejoin:round;stroke-miterlimit:4;stroke-opacity:1;stroke-dasharray:none" />
    <path
       inkscape:connector-curvature="0"
       id="path4459-1-0-1"
       d="M 7.3460727,7.3564676 13.135573,9.7836124"
       style="fill:none;stroke:#000000;stroke-width:1.5;stroke-linecap:round;stroke-linejoin:round;stroke-miterlimit:4;stroke-opacity:1;stroke-dasharray:none" />
    <path
       style="fill:none;stroke:#000000;stroke-width:1.5;stroke-linecap:round;stroke-linejoin:miter;stroke-opacity:1;display:inline"
       d="m 6.8749991,21.223325 c 0,0 1.819661,-4.3214 8.4642869,-4.3214 6.644625,0 8.321429,4.3214 8.321429,4.3214"
       id="path3809-7"
       inkscape:connector-curvature="0"
       sodipodi:nodetypes="czc" />
    <path
       style="fill:none;stroke:#000000;stroke-width:1.5;stroke-linecap:round;stroke-linejoin:round;stroke-miterlimit:4;stroke-opacity:1;stroke-dasharray:none;display:inline"
       d="m 17.715094,12.787705 5.758928,-0.133929"
       id="path2991-7"
       inkscape:connector-curvature="0"
       sodipodi:nodetypes="cc" />
    <path
       style="fill:none;stroke:#000000;stroke-width:1.5;stroke-linecap:round;stroke-linejoin:round;stroke-miterlimit:4;stroke-opacity:1;stroke-dasharray:none;display:inline"
       d="M 6.7999162,12.714395 12.558844,12.580467"
       id="path2991-7-4"
       inkscape:connector-curvature="0"
       sodipodi:nodetypes="cc" />
    <path
       style="fill:#ffffff;fill-opacity:1;stroke:#000000;stroke-width:1;stroke-linecap:round;stroke-linejoin:round;stroke-miterlimit:4;stroke-opacity:1;stroke-dasharray:none"
       d="m 16.804645,19.813367 2.165943,6.091651 c -1.093201,1.16112 -0.68868,2.220504 0.09175,3.254353 1.796653,1.552851 2.21483,-0.605022 2.21483,-0.605022 0,0 0.383772,2.070764 2.533352,0.477355 1.99924,-1.481968 0.296959,-2.611228 0.296959,-2.611228 0,0 2.344104,0.743526 1.495299,-1.464752 -0.550399,-1.037091 -1.147005,-2.055378 -3.255191,-1.552346 l -3.752169,-4.654501"
       id="path3031"
       inkscape:connector-curvature="0"
       sodipodi:nodetypes="ccccscccc" />
    <path
       style="fill:#ffffff;fill-opacity:1;stroke:#000000;stroke-width:1;stroke-linecap:round;stroke-linejoin:round;stroke-miterlimit:4;stroke-opacity:1;stroke-dasharray:none;display:inline"
       d="m 13.563095,19.908738 -2.165943,6.091651 c 1.093201,1.16112 0.68868,2.220504 -0.09175,3.254353 -1.7966512,1.552851 -2.2148273,-0.605022 -2.2148273,-0.605022 0,0 -0.383772,2.070764 -2.533352,0.477355 -1.99924,-1.481968 -0.296959,-2.611228 -0.296959,-2.611228 0,0 -2.344104,0.743526 -1.495299,-1.464752 0.550399,-1.037091 1.147005,-2.055378 3.255191,-1.552346 l 3.7521663,-4.654501"
       id="path3031-0"
       inkscape:connector-curvature="0"
       sodipodi:nodetypes="ccccscccc" />
  </g>
</svg>
